if (_typeface_js && _typeface_js.loadFace) _typeface_js.loadFace({"glyphs":{"¦":{"x_min":253,"x_max":444,"ha":694,"o":"m 444 277 l 444 -237 l 253 -237 l 253 277 l 444 277 m 444 971 l 444 457 l 253 457 l 253 971 l 444 971 "},"Ž":{"x_min":-24,"x_max":905,"ha":920,"o":"m -24 0 l 10 242 l 479 753 l 56 753 l 91 999 l 905 999 l 866 764 l 405 258 l 866 258 l 829 0 l -24 0 m 382 1337 l 478 1337 l 564 1200 l 714 1337 l 817 1337 l 640 1086 l 468 1086 l 382 1337 "},"Á":{"x_min":-79,"x_max":929,"ha":981,"o":"m -79 0 l 409 999 l 728 999 l 929 0 l 627 0 l 612 119 l 294 119 l 244 0 l -79 0 m 373 320 l 579 320 l 526 690 l 373 320 m 452 1086 l 608 1337 l 820 1337 l 554 1086 l 452 1086 "},"Î":{"x_min":24,"x_max":563,"ha":519,"o":"m 24 0 l 175 999 l 496 999 l 344 0 l 24 0 m 563 1086 l 468 1086 l 382 1220 l 232 1086 l 130 1086 l 306 1337 l 478 1337 l 563 1086 "},"e":{"x_min":21,"x_max":851,"ha":920,"o":"m 322 452 l 576 452 q 544 551 574 516 q 458 586 513 586 q 367 550 403 586 q 322 452 331 515 m 545 215 l 821 215 q 682 36 786 99 q 422 -26 579 -26 q 128 67 236 -26 q 21 322 21 161 q 138 643 21 523 q 452 764 255 764 q 749 665 647 764 q 851 377 851 566 q 849 342 851 360 q 846 306 848 324 l 310 306 l 310 293 q 342 191 310 226 q 437 156 374 156 q 507 171 479 156 q 545 215 536 187 "},"»":{"x_min":-4,"x_max":658,"ha":711,"o":"m 426 640 l 658 471 l 626 265 l 346 97 l 373 287 l 524 379 l 400 467 l 426 640 m 76 640 l 307 471 l 276 265 l -4 97 l 22 287 l 174 379 l 50 467 l 76 640 "},"∆":{"x_min":-4,"x_max":1023,"ha":1021,"o":"m 649 210 l 509 687 l 369 210 l 649 210 m 671 999 l 1023 0 l -4 0 l 347 999 l 671 999 "},"ò":{"x_min":20,"x_max":856,"ha":913,"o":"m 456 566 q 349 501 387 566 q 312 321 312 437 q 338 213 312 248 q 421 178 365 178 q 525 242 486 178 q 564 415 564 306 q 537 528 564 490 q 456 566 510 566 m 20 331 q 140 647 20 529 q 462 765 260 765 q 750 669 644 765 q 856 409 856 573 q 739 89 856 205 q 416 -26 622 -26 q 126 70 233 -26 q 20 331 20 167 m 302 1076 l 486 1076 l 598 825 l 502 825 l 302 1076 "},"^":{"x_min":279,"x_max":1108,"ha":1389,"o":"m 808 991 l 1108 608 l 902 608 l 694 817 l 484 608 l 279 608 l 578 991 l 808 991 "},"«":{"x_min":16,"x_max":678,"ha":711,"o":"m 597 97 l 366 265 l 397 472 l 678 639 l 650 449 l 498 358 l 624 269 l 597 97 m 247 97 l 16 265 l 46 472 l 328 639 l 300 449 l 147 358 l 272 269 l 247 97 "},"∙":{"x_min":62,"x_max":393,"ha":457,"o":"m 62 491 q 109 609 62 561 q 227 657 157 657 q 344 608 295 657 q 393 491 393 560 q 344 374 393 423 q 227 326 296 326 q 110 374 158 326 q 62 491 62 422 "},"í":{"x_min":5,"x_max":508,"ha":440,"o":"m 5 0 l 112 737 l 397 737 l 289 0 l 5 0 m 140 825 l 296 1076 l 508 1076 l 242 825 l 140 825 "},"ˆ":{"x_min":161,"x_max":594,"ha":694,"o":"m 594 825 l 499 825 l 413 959 l 263 825 l 161 825 l 337 1076 l 509 1076 l 594 825 "},"µ":{"x_min":-20,"x_max":900,"ha":930,"o":"m 408 737 l 351 320 q 349 297 349 305 q 348 284 348 289 q 369 216 348 238 q 434 194 391 194 q 518 229 488 194 q 559 338 549 264 l 616 737 l 900 737 l 792 0 l 543 0 l 555 88 q 499 19 531 42 q 427 -3 467 -3 q 356 18 386 -3 q 308 81 326 39 l 259 -286 l -20 -286 l 122 737 l 408 737 "},"č":{"x_min":20,"x_max":829,"ha":886,"o":"m 538 286 l 817 286 q 683 54 787 134 q 414 -25 579 -25 q 125 69 231 -25 q 20 326 20 164 q 136 643 20 524 q 449 762 253 762 q 726 682 626 762 q 829 460 826 602 l 555 460 q 527 536 553 509 q 452 563 500 563 q 346 498 384 563 q 308 320 308 434 q 335 211 308 248 q 418 175 363 175 q 496 205 464 175 q 538 286 529 235 m 308 1076 l 404 1076 l 490 939 l 640 1076 l 743 1076 l 566 825 l 394 825 l 308 1076 "},"’":{"x_min":83,"x_max":416,"ha":425,"o":"m 416 999 l 381 753 q 294 557 363 622 q 106 493 226 493 l 83 493 l 99 611 q 107 610 103 610 q 118 609 111 609 q 194 640 167 609 q 234 735 222 670 l 117 735 l 154 999 l 416 999 "},"-":{"x_min":36,"x_max":423,"ha":486,"o":"m 36 241 l 74 501 l 423 501 l 383 241 l 36 241 "},"Q":{"x_min":52,"x_max":1091,"ha":1140,"o":"m 570 220 l 473 345 l 632 471 l 731 345 q 770 452 756 392 q 784 575 784 511 q 737 730 784 676 q 603 785 690 785 q 427 688 495 785 q 360 435 360 591 q 406 275 360 331 q 539 219 453 219 q 560 219 553 219 q 570 220 566 219 m 859 -144 l 737 9 q 635 -19 683 -9 q 545 -29 587 -29 q 181 97 310 -29 q 52 455 52 224 q 90 672 52 569 q 199 854 128 775 q 380 982 276 938 q 607 1026 484 1026 q 961 899 831 1026 q 1091 555 1091 773 q 1045 310 1091 424 q 913 113 1000 197 l 1017 -18 l 859 -144 "},"M":{"x_min":22,"x_max":1292,"ha":1314,"o":"m 22 0 l 170 999 l 559 999 l 626 459 q 629 421 628 440 q 630 381 630 401 q 630 355 630 364 q 629 337 629 345 q 642 405 634 375 q 661 458 650 435 l 899 999 l 1292 999 l 1146 0 l 862 0 l 996 739 q 973 661 985 697 q 950 598 960 625 l 695 0 l 475 0 l 398 604 q 394 661 395 625 q 393 739 393 697 l 308 0 l 22 0 "},"œ":{"x_min":20,"x_max":1317,"ha":1386,"o":"m 787 452 l 1048 452 q 1016 552 1047 517 q 928 588 986 588 q 835 552 872 588 q 787 452 799 517 m 454 566 q 348 501 387 566 q 309 326 309 436 q 336 209 309 247 q 419 171 363 171 q 527 236 487 171 q 567 412 567 301 q 538 527 567 489 q 454 566 510 566 m 640 64 q 526 -2 590 20 q 390 -26 462 -26 q 123 76 227 -26 q 20 336 20 178 q 139 645 20 526 q 450 764 259 764 q 588 741 525 764 q 701 673 651 719 q 805 742 747 720 q 937 764 864 764 q 1218 661 1119 764 q 1317 371 1317 559 q 1315 346 1316 359 q 1313 306 1315 333 l 774 306 l 774 293 q 807 189 774 225 q 905 154 840 154 q 971 169 945 154 q 1010 215 998 185 l 1287 215 q 1147 37 1249 100 q 899 -26 1045 -26 q 742 -3 806 -26 q 640 64 677 18 "},"{":{"x_min":98,"x_max":614,"ha":694,"o":"m 614 809 q 598 809 608 809 q 584 810 588 810 q 505 790 525 810 q 485 703 485 769 l 485 542 q 453 413 485 451 q 337 361 421 376 q 453 308 421 345 q 485 181 485 271 l 485 17 q 505 -67 485 -47 q 583 -88 525 -88 q 598 -87 588 -88 q 614 -87 608 -87 l 614 -280 l 559 -280 q 416 -272 465 -280 q 335 -249 366 -265 q 277 -192 294 -229 q 261 -65 261 -155 l 261 109 q 229 231 261 195 q 121 266 197 266 q 110 265 118 266 q 98 265 102 265 l 98 458 q 110 457 102 458 q 121 456 118 456 q 229 491 197 456 q 261 612 261 526 l 261 786 q 277 913 261 876 q 335 971 294 951 q 416 994 367 987 q 559 1002 466 1002 l 614 1002 l 614 809 "},"¼":{"x_min":98,"x_max":1355,"ha":1382,"o":"m 1081 0 l 1102 122 l 817 122 l 839 265 l 1156 546 l 1340 546 l 1290 241 l 1355 241 l 1333 122 l 1269 122 l 1250 0 l 1081 0 m 969 241 l 1127 241 l 1155 411 l 969 241 m 343 -27 l 900 1002 l 1037 1002 l 480 -27 l 343 -27 m 194 431 l 247 769 q 180 758 216 762 q 98 755 143 755 l 118 865 q 243 897 194 871 q 324 977 292 924 l 464 977 l 372 431 l 194 431 "},"#":{"x_min":-4,"x_max":1072,"ha":1068,"o":"m 641 565 l 479 565 l 426 421 l 588 421 l 641 565 m 636 997 l 548 748 l 702 748 l 789 997 l 985 997 l 898 748 l 1072 748 l 1004 565 l 833 565 l 781 421 l 956 421 l 888 238 l 716 238 l 627 -11 l 431 -11 l 520 238 l 366 238 l 278 -11 l 82 -11 l 170 238 l -4 238 l 63 421 l 235 421 l 286 565 l 111 565 l 177 748 l 352 748 l 440 997 l 636 997 "},"Ê":{"x_min":22,"x_max":947,"ha":939,"o":"m 22 0 l 174 999 l 947 999 l 910 761 l 449 761 l 427 624 l 837 624 l 801 402 l 392 402 l 371 241 l 862 241 l 827 0 l 22 0 m 793 1086 l 698 1086 l 612 1220 l 462 1086 l 360 1086 l 536 1337 l 708 1337 l 793 1086 "},")":{"x_min":-71,"x_max":455,"ha":572,"o":"m 343 997 q 427 751 399 879 q 455 483 455 624 q 388 101 455 287 q 178 -286 322 -84 l -71 -286 q 125 121 58 -91 q 193 550 193 333 q 174 780 193 668 q 120 997 156 891 l 343 997 "},"Å":{"x_min":-79,"x_max":929,"ha":981,"o":"m 506 1157 q 527 1105 506 1126 q 580 1085 548 1085 q 632 1106 611 1085 q 654 1157 654 1127 q 632 1210 654 1188 q 580 1233 610 1233 q 527 1210 549 1233 q 506 1157 506 1188 m 403 1158 q 454 1284 403 1233 q 580 1336 505 1336 q 705 1284 653 1336 q 757 1158 757 1232 q 705 1032 757 1083 q 580 982 654 982 q 454 1032 505 982 q 403 1158 403 1083 m 373 320 l 578 320 l 526 689 l 373 320 m -79 0 l 396 950 l 730 950 l 929 0 l 626 0 l 611 119 l 294 119 l 244 0 l -79 0 "},"¸":{"x_min":77,"x_max":466,"ha":694,"o":"m 77 -297 l 111 -207 q 195 -233 155 -224 q 271 -243 235 -243 q 319 -229 301 -243 q 337 -192 337 -215 q 312 -156 337 -167 q 229 -146 288 -146 l 201 -146 l 252 0 l 329 0 l 307 -63 q 426 -93 387 -64 q 466 -180 466 -123 q 416 -297 466 -256 q 277 -338 367 -338 q 191 -327 241 -338 q 77 -297 142 -317 "},"a":{"x_min":-3,"x_max":820,"ha":900,"o":"m 516 329 q 401 299 471 314 q 286 212 286 273 q 306 167 286 184 q 360 151 326 151 q 471 197 430 151 q 516 329 512 244 m 503 0 l 494 69 q 370 0 433 22 q 238 -24 307 -24 q 62 32 128 -24 q -3 181 -3 88 q 79 370 -3 308 q 360 454 161 433 q 401 457 375 455 q 543 525 543 470 q 518 571 543 554 q 450 588 493 588 q 377 569 402 588 q 349 513 353 551 l 74 513 q 189 700 91 638 q 471 762 288 762 q 730 702 641 762 q 820 530 820 643 q 817 482 820 511 q 809 420 814 453 l 767 154 q 762 116 763 130 q 760 92 760 101 q 766 52 760 69 q 785 19 772 34 l 785 0 l 503 0 "},"=":{"x_min":172,"x_max":984,"ha":1157,"o":"m 984 347 l 984 163 l 172 163 l 172 347 l 984 347 m 984 666 l 984 482 l 172 482 l 172 666 l 984 666 "},"˚":{"x_min":236,"x_max":604,"ha":694,"o":"m 338 978 q 361 921 338 944 q 421 898 385 898 q 479 921 456 898 q 502 978 502 944 q 478 1037 502 1013 q 421 1062 454 1062 q 361 1038 385 1062 q 338 978 338 1014 m 236 980 q 289 1110 236 1057 q 421 1164 343 1164 q 550 1111 497 1164 q 604 980 604 1058 q 550 849 604 903 q 421 796 497 796 q 289 849 343 796 q 236 980 236 902 "},"ú":{"x_min":41,"x_max":890,"ha":930,"o":"m 524 0 l 533 100 q 422 9 485 40 q 287 -22 359 -22 q 106 44 171 -22 q 41 229 41 111 q 42 262 41 245 q 45 295 43 278 l 109 737 l 394 737 l 337 343 q 334 318 335 331 q 333 292 333 305 q 356 228 333 251 q 424 205 380 205 q 506 236 476 205 q 546 336 535 267 l 606 737 l 890 737 l 782 0 l 524 0 m 388 825 l 544 1076 l 756 1076 l 490 825 l 388 825 "},"¯":{"x_min":196,"x_max":628,"ha":694,"o":"m 196 893 l 212 1007 l 628 1007 l 611 893 l 196 893 "},"Z":{"x_min":-24,"x_max":905,"ha":920,"o":"m -24 0 l 10 242 l 479 753 l 56 753 l 91 999 l 905 999 l 866 764 l 405 258 l 866 258 l 829 0 l -24 0 "},"u":{"x_min":41,"x_max":890,"ha":930,"o":"m 524 0 l 533 100 q 422 9 485 40 q 287 -22 359 -22 q 106 44 171 -22 q 41 229 41 111 q 42 262 41 245 q 45 295 43 278 l 109 737 l 394 737 l 337 343 q 334 318 335 331 q 333 292 333 305 q 356 228 333 251 q 424 205 380 205 q 506 236 476 205 q 546 336 535 267 l 606 737 l 890 737 l 782 0 l 524 0 "},"k":{"x_min":10,"x_max":907,"ha":873,"o":"m 10 0 l 155 999 l 440 999 l 365 499 l 579 737 l 907 737 l 605 450 l 811 0 l 505 0 l 400 273 l 319 194 l 290 0 l 10 0 "},"Ù":{"x_min":77,"x_max":1103,"ha":1124,"o":"m 169 999 l 486 999 l 396 407 q 393 384 394 395 q 392 360 392 372 q 426 257 392 293 q 524 222 460 222 q 644 260 606 222 q 697 402 681 298 l 788 999 l 1103 999 l 1011 389 q 863 70 978 168 q 526 -28 749 -28 q 191 70 306 -28 q 77 356 77 169 q 79 404 77 378 q 86 466 81 430 l 169 999 m 471 1337 l 655 1337 l 767 1086 l 671 1086 l 471 1337 "},"¢":{"x_min":43,"x_max":853,"ha":913,"o":"m 517 563 q 490 571 503 568 q 467 575 477 575 q 361 504 402 575 q 320 319 320 433 q 326 255 320 280 q 347 212 333 229 l 517 563 m 147 -194 l 246 10 q 96 140 149 54 q 43 340 43 227 q 161 646 43 528 q 468 765 280 765 q 521 761 491 765 q 602 751 552 758 l 668 892 l 774 892 l 692 719 q 810 615 770 679 q 853 463 850 552 l 562 463 l 425 174 q 431 174 427 174 q 450 172 444 172 q 527 204 495 172 q 569 289 560 236 l 840 289 q 708 58 811 140 q 447 -24 605 -24 q 404 -21 429 -24 q 339 -13 380 -19 l 254 -194 l 147 -194 "},"Ş":{"x_min":14,"x_max":930,"ha":983,"o":"m 14 318 l 324 318 l 324 315 q 362 231 324 260 q 473 202 400 202 q 554 222 526 202 q 582 282 582 243 q 456 384 582 331 q 409 404 426 397 q 170 551 233 482 q 108 722 108 620 q 213 945 108 865 q 508 1025 318 1025 q 807 940 697 1025 q 930 701 918 855 l 632 701 q 593 777 625 752 q 502 802 561 802 q 437 782 462 802 q 412 733 412 762 q 562 627 412 689 q 658 586 622 602 q 836 462 779 533 q 893 294 893 391 q 780 58 893 142 q 463 -26 667 -26 q 132 64 250 -26 q 14 318 14 155 m 221 -297 l 255 -207 q 339 -233 299 -224 q 415 -243 379 -243 q 463 -229 445 -243 q 481 -192 481 -215 q 456 -156 481 -167 q 373 -146 432 -146 l 345 -146 l 396 0 l 473 0 l 451 -63 q 570 -93 531 -64 q 610 -180 610 -123 q 560 -297 610 -256 q 421 -338 511 -338 q 335 -327 385 -338 q 221 -297 286 -317 "},"é":{"x_min":21,"x_max":851,"ha":920,"o":"m 322 452 l 576 452 q 544 551 574 516 q 458 586 513 586 q 367 550 403 586 q 322 452 331 515 m 545 215 l 821 215 q 682 36 786 99 q 422 -26 579 -26 q 128 67 236 -26 q 21 322 21 161 q 138 643 21 523 q 452 764 255 764 q 749 665 647 764 q 851 377 851 566 q 849 342 851 360 q 846 306 848 324 l 310 306 l 310 293 q 342 191 310 226 q 437 156 374 156 q 507 171 479 156 q 545 215 536 187 m 357 825 l 513 1076 l 725 1076 l 459 825 l 357 825 "},"B":{"x_min":22,"x_max":976,"ha":1036,"o":"m 415 599 l 546 599 q 651 621 619 599 q 683 696 683 644 q 654 756 683 739 q 539 774 625 774 l 445 774 l 415 599 m 363 232 l 520 232 q 631 256 596 232 q 666 334 666 280 q 635 401 666 381 q 528 421 604 421 l 391 421 l 363 232 m 22 0 l 171 999 l 586 999 q 884 938 792 999 q 976 746 976 878 q 942 601 976 660 q 839 503 909 542 q 931 425 899 478 q 964 304 964 373 q 864 76 964 152 q 566 0 764 0 l 22 0 "},"…":{"x_min":20,"x_max":1284,"ha":1389,"o":"m 20 0 l 64 296 l 358 296 l 312 0 l 20 0 m 482 0 l 526 296 l 820 296 l 774 0 l 482 0 m 946 0 l 990 296 l 1284 296 l 1238 0 l 946 0 "},"H":{"x_min":22,"x_max":1101,"ha":1124,"o":"m 22 0 l 171 999 l 491 999 l 435 656 l 730 656 l 783 999 l 1101 999 l 953 0 l 632 0 l 688 390 l 395 390 l 339 0 l 22 0 "},"î":{"x_min":5,"x_max":477,"ha":440,"o":"m 5 0 l 112 737 l 397 737 l 289 0 l 5 0 m 477 825 l 382 825 l 296 959 l 146 825 l 44 825 l 220 1076 l 392 1076 l 477 825 "},"−":{"x_min":172,"x_max":984,"ha":1157,"o":"m 984 509 l 984 321 l 172 321 l 172 509 l 984 509 "},"≠":{"x_min":172,"x_max":984,"ha":1157,"o":"m 938 756 l 862 662 l 984 662 l 984 486 l 741 486 l 624 343 l 984 343 l 984 165 l 506 165 l 342 -37 l 208 70 l 284 165 l 172 165 l 172 343 l 402 343 l 517 486 l 172 486 l 172 662 l 639 662 l 805 866 l 938 756 "},"¥":{"x_min":4.09375,"x_max":1014,"ha":968,"o":"m 286 0 l 335 343 l 4 343 l 22 468 l 289 468 l 250 555 l 34 555 l 51 680 l 192 680 l 60 974 l 355 974 l 478 654 q 485 622 482 642 q 487 580 487 602 l 487 563 q 496 614 491 593 q 510 648 502 634 l 698 974 l 1014 974 l 820 680 l 969 680 l 952 555 l 737 555 l 677 468 l 940 468 l 922 343 l 607 343 l 558 0 l 286 0 "},"U":{"x_min":77,"x_max":1103,"ha":1124,"o":"m 169 999 l 486 999 l 396 407 q 393 384 394 395 q 392 360 392 372 q 426 257 392 293 q 524 222 460 222 q 644 260 606 222 q 697 402 681 298 l 788 999 l 1103 999 l 1011 389 q 863 70 978 168 q 526 -28 749 -28 q 191 70 306 -28 q 77 356 77 169 q 79 404 77 378 q 86 466 81 430 l 169 999 "},"Ñ":{"x_min":22,"x_max":1102,"ha":1124,"o":"m 22 0 l 171 999 l 463 999 l 695 488 q 713 432 707 461 q 721 370 720 402 q 723 435 721 405 q 728 489 725 465 l 805 999 l 1102 999 l 949 0 l 655 0 l 419 518 q 407 562 413 533 q 398 627 401 591 l 398 600 q 396 553 398 575 q 392 514 395 532 l 317 0 l 22 0 m 908 1315 q 846 1181 884 1223 q 749 1139 808 1139 q 724 1141 737 1139 q 689 1151 710 1144 l 647 1165 q 624 1170 635 1168 q 604 1172 614 1172 q 560 1155 577 1172 q 536 1108 543 1139 l 455 1108 q 516 1241 476 1197 q 615 1286 556 1286 q 644 1283 627 1286 q 677 1275 660 1280 l 720 1260 q 740 1255 730 1257 q 756 1253 749 1253 q 800 1267 783 1253 q 827 1315 816 1282 l 908 1315 "},"F":{"x_min":22,"x_max":876,"ha":833,"o":"m 22 0 l 173 999 l 876 999 l 837 754 l 448 754 l 423 596 l 754 596 l 716 358 l 388 358 l 336 0 l 22 0 "},"*":{"x_min":61,"x_max":680,"ha":694,"o":"m 370 569 l 254 403 l 116 499 l 243 661 l 61 712 l 113 872 l 290 811 l 290 999 l 451 999 l 451 811 l 628 872 l 680 711 l 495 662 l 624 499 l 485 403 l 370 569 "},"†":{"x_min":33,"x_max":708,"ha":694,"o":"m 239 555 l 33 555 l 59 731 l 266 731 l 307 999 l 532 999 l 492 731 l 708 731 l 682 555 l 466 555 l 362 -144 l 136 -144 l 239 555 "},"∕":{"x_min":-232,"x_max":462,"ha":232,"o":"m -232 -27 l 324 1002 l 462 1002 l -94 -27 l -232 -27 "},"°":{"x_min":10,"x_max":447,"ha":457,"o":"m 332 781 q 301 853 332 823 q 227 884 270 884 q 155 853 185 884 q 125 781 125 823 q 155 707 125 737 q 228 677 185 677 q 301 708 271 677 q 332 781 332 739 m 229 999 q 383 935 320 999 q 447 779 447 871 q 382 626 447 690 q 228 562 318 562 q 73 625 137 562 q 10 779 10 688 q 74 934 10 870 q 229 999 139 999 "},"å":{"x_min":-3,"x_max":820,"ha":900,"o":"m 434 973 q 455 920 434 941 q 508 899 476 899 q 560 920 539 899 q 582 973 582 942 q 560 1025 582 1003 q 508 1047 538 1047 q 455 1025 477 1047 q 434 973 434 1004 m 331 973 q 381 1099 331 1048 q 507 1150 432 1150 q 633 1098 581 1150 q 685 973 685 1046 q 633 847 685 898 q 507 796 582 796 q 381 847 432 796 q 331 973 331 898 m 503 0 l 493 69 q 370 0 433 22 q 238 -24 306 -24 q 62 32 128 -24 q -3 181 -3 88 q 79 370 -3 308 q 360 454 161 433 q 401 457 375 455 q 543 525 543 470 q 518 571 543 554 q 450 588 493 588 q 377 569 402 588 q 349 513 353 551 l 74 513 q 189 700 91 638 q 471 762 288 762 q 730 702 641 762 q 820 530 820 643 q 817 482 820 511 q 809 420 814 453 l 767 154 q 761 116 763 130 q 760 92 760 101 q 766 52 760 69 q 785 19 772 34 l 785 0 l 503 0 m 516 329 q 401 299 471 314 q 286 212 286 273 q 306 167 286 184 q 360 151 326 151 q 471 197 430 151 q 516 329 512 244 "},"0":{"x_min":31,"x_max":884,"ha":913,"o":"m 31 421 q 67 660 31 547 q 171 856 103 772 q 311 966 230 928 q 490 1004 392 1004 q 781 890 679 1004 q 884 568 884 777 q 756 135 884 296 q 418 -25 629 -25 q 132 91 234 -25 q 31 421 31 208 m 492 788 q 360 674 407 788 q 314 354 314 560 q 342 236 314 276 q 425 197 370 197 q 498 222 464 197 q 549 291 532 247 q 586 439 571 346 q 601 626 601 531 q 574 749 601 710 q 492 788 548 788 "},"":{"x_min":77,"x_max":1021,"ha":1097,"o":"m 567 824 q 566 834 566 828 q 565 849 565 839 q 630 1005 565 934 q 790 1094 694 1077 q 791 1079 791 1087 q 791 1052 791 1070 q 721 893 791 963 q 583 823 651 823 l 578 823 q 573 824 576 823 q 567 824 570 824 m 1021 273 q 881 40 943 105 q 743 -24 820 -24 q 654 -1 709 -24 q 571 20 599 20 q 482 -1 540 20 q 396 -24 424 -24 q 309 5 353 -24 q 221 95 265 35 q 114 295 152 190 q 77 499 77 401 q 161 741 77 648 q 380 835 246 835 q 485 811 426 835 q 569 788 544 788 q 652 811 592 788 q 755 835 711 835 q 890 808 830 835 q 999 725 950 781 q 896 626 929 681 q 863 502 863 571 q 903 366 863 425 q 1021 273 944 307 "},"”":{"x_min":83,"x_max":752,"ha":758,"o":"m 752 999 l 717 753 q 630 557 698 622 q 441 493 561 493 l 418 493 l 434 611 q 443 610 439 610 q 454 609 447 609 q 529 640 502 609 q 568 735 557 670 l 453 735 l 490 999 l 752 999 m 415 999 l 381 753 q 294 557 363 622 q 106 493 226 493 l 83 493 l 99 611 q 107 610 103 610 q 118 609 111 609 q 195 640 167 609 q 234 735 222 670 l 117 735 l 153 999 l 415 999 "},"ö":{"x_min":20,"x_max":856,"ha":913,"o":"m 456 566 q 349 501 387 566 q 312 321 312 437 q 338 213 312 248 q 421 178 365 178 q 525 242 486 178 q 564 415 564 306 q 537 528 564 490 q 456 566 510 566 m 20 331 q 140 647 20 529 q 462 765 260 765 q 750 669 644 765 q 856 409 856 573 q 739 89 856 205 q 416 -26 622 -26 q 126 70 233 -26 q 20 331 20 167 m 538 859 l 564 1050 l 734 1050 l 707 859 l 538 859 m 292 859 l 316 1050 l 488 1050 l 461 859 l 292 859 "},"Õ":{"x_min":50,"x_max":1089,"ha":1140,"o":"m 599 779 q 431 683 496 779 q 367 434 367 588 q 411 277 367 331 q 539 224 455 224 q 707 322 643 224 q 772 585 772 421 q 725 727 772 676 q 599 779 679 779 m 50 440 q 87 670 50 565 q 198 855 125 776 q 379 982 276 939 q 605 1026 482 1026 q 960 900 831 1026 q 1089 556 1089 775 q 1052 330 1089 434 q 947 151 1016 227 q 762 18 867 63 q 532 -26 658 -26 q 179 99 309 -26 q 50 440 50 225 m 894 1315 q 832 1181 870 1223 q 735 1139 794 1139 q 710 1141 723 1139 q 675 1151 696 1144 l 633 1165 q 610 1170 621 1168 q 590 1172 600 1172 q 546 1155 563 1172 q 522 1108 529 1139 l 441 1108 q 502 1241 462 1197 q 601 1286 542 1286 q 630 1283 613 1286 q 663 1275 646 1280 l 706 1260 q 726 1255 716 1257 q 742 1253 735 1253 q 786 1267 769 1253 q 813 1315 802 1282 l 894 1315 "},"ć":{"x_min":20,"x_max":829,"ha":886,"o":"m 538 286 l 817 286 q 683 54 787 134 q 414 -25 579 -25 q 125 69 231 -25 q 20 326 20 164 q 136 643 20 524 q 449 762 253 762 q 726 682 626 762 q 829 460 826 602 l 555 460 q 527 536 553 509 q 452 563 500 563 q 346 498 384 563 q 308 320 308 434 q 335 211 308 248 q 418 175 363 175 q 496 205 464 175 q 538 286 529 235 m 353 825 l 509 1076 l 721 1076 l 455 825 l 353 825 "},"þ":{"x_min":-29,"x_max":879,"ha":940,"o":"m 485 553 q 379 493 419 553 q 340 331 340 433 q 369 234 340 269 q 451 200 398 200 q 553 260 515 200 q 591 422 591 320 q 563 519 591 485 q 485 553 536 553 m -29 -286 l 144 999 l 429 999 l 387 669 q 467 740 418 717 q 581 764 515 764 q 800 673 722 764 q 879 421 879 583 q 781 97 879 222 q 533 -28 684 -28 q 398 1 456 -28 q 307 87 339 31 l 254 -286 l -29 -286 "},"]":{"x_min":-83,"x_max":525,"ha":600,"o":"m 525 999 l 335 -288 l -83 -288 l -53 -80 l 111 -80 l 234 791 l 78 791 l 104 999 l 525 999 "},"8":{"x_min":26,"x_max":872,"ha":913,"o":"m 206 531 q 125 609 152 563 q 99 715 99 654 q 203 921 99 843 q 481 1000 307 1000 q 769 921 666 1000 q 872 703 872 843 q 830 569 872 622 q 707 490 789 515 q 821 409 785 459 q 858 281 858 358 q 746 55 858 138 q 439 -28 634 -28 q 137 56 249 -28 q 26 283 26 141 q 70 436 26 376 q 206 531 114 497 m 442 429 q 342 394 378 429 q 307 297 307 359 q 342 210 307 242 q 438 178 377 178 q 540 212 503 178 q 577 308 577 247 q 540 396 577 364 q 442 429 504 429 m 483 803 q 393 772 426 803 q 360 688 360 741 q 390 611 360 640 q 474 583 421 583 q 574 613 538 583 q 610 697 610 643 q 575 774 610 745 q 483 803 541 803 "},"R":{"x_min":22,"x_max":1005,"ha":1029,"o":"m 22 0 l 170 999 l 632 999 q 915 934 825 999 q 1005 730 1005 869 q 956 558 1005 630 q 814 446 907 486 q 909 380 880 420 q 938 273 938 340 q 936 242 938 258 q 933 209 935 226 l 922 108 q 920 87 920 94 q 920 75 920 81 q 927 43 920 55 q 950 25 935 31 l 950 0 l 613 0 q 610 20 611 9 q 609 44 609 31 q 610 67 609 53 q 613 99 611 80 l 627 199 q 629 218 628 208 q 630 243 630 227 q 593 333 630 307 q 465 359 557 359 l 383 359 l 329 0 l 22 0 m 414 572 l 566 572 q 672 596 638 572 q 706 674 706 621 q 676 740 706 720 q 578 761 646 761 l 443 761 l 414 572 "},"o":{"x_min":20,"x_max":856,"ha":913,"o":"m 456 566 q 349 501 387 566 q 312 321 312 437 q 338 213 312 248 q 421 178 365 178 q 525 242 486 178 q 564 415 564 306 q 537 528 564 490 q 456 566 510 566 m 20 331 q 140 647 20 529 q 462 765 260 765 q 750 669 644 765 q 856 409 856 573 q 739 89 856 205 q 416 -26 622 -26 q 126 70 233 -26 q 20 331 20 167 "},"5":{"x_min":22,"x_max":845,"ha":913,"o":"m 22 256 l 301 281 q 350 215 319 236 q 427 194 380 194 q 530 235 493 194 q 568 350 568 276 q 532 436 568 402 q 442 471 496 471 q 378 456 407 471 q 328 411 350 441 l 60 423 l 203 974 l 839 974 l 793 752 l 383 752 l 344 600 q 425 637 380 625 q 523 649 469 649 q 757 565 669 649 q 845 345 845 482 q 728 70 845 171 q 413 -31 612 -31 q 155 43 256 -31 q 22 256 53 117 "},"õ":{"x_min":20,"x_max":856,"ha":913,"o":"m 456 566 q 349 501 387 566 q 312 321 312 437 q 338 213 312 248 q 421 178 365 178 q 525 242 486 178 q 564 415 564 306 q 537 528 564 490 q 456 566 510 566 m 20 331 q 140 647 20 529 q 462 765 260 765 q 750 669 644 765 q 856 409 856 573 q 739 89 856 205 q 416 -26 622 -26 q 126 70 233 -26 q 20 331 20 167 m 739 1054 q 677 920 715 962 q 580 878 639 878 q 555 880 568 878 q 520 890 541 883 l 478 904 q 455 909 466 907 q 435 911 445 911 q 391 894 408 911 q 367 847 374 878 l 286 847 q 347 980 307 936 q 446 1025 387 1025 q 475 1022 458 1025 q 508 1014 491 1019 l 551 999 q 571 994 561 996 q 587 992 580 992 q 631 1006 614 992 q 658 1054 647 1021 l 739 1054 "},",":{"x_min":3,"x_max":357,"ha":457,"o":"m 18 0 l 64 296 l 357 296 l 312 0 q 216 -178 293 -119 q 3 -238 139 -238 l 21 -112 q 112 -85 80 -112 q 155 0 145 -58 l 18 0 "},"d":{"x_min":25,"x_max":922,"ha":937,"o":"m 448 540 q 346 479 387 540 q 306 327 306 419 q 334 226 306 262 q 413 190 362 190 q 520 248 479 190 q 560 402 560 307 q 531 504 560 469 q 448 540 502 540 m 533 0 l 543 96 q 440 8 499 38 q 311 -22 381 -22 q 102 72 180 -22 q 25 326 25 167 q 124 637 25 512 q 372 762 224 762 q 496 735 441 762 q 589 655 550 709 l 640 999 l 922 999 l 785 0 l 533 0 "},"\"":{"x_min":46,"x_max":467,"ha":514,"o":"m 467 977 l 467 595 l 292 595 l 292 977 l 467 977 m 221 977 l 221 595 l 46 595 l 46 977 l 221 977 "},"˙":{"x_min":309,"x_max":514,"ha":694,"o":"m 309 856 l 335 1047 l 514 1047 l 486 856 l 309 856 "},"ê":{"x_min":21,"x_max":851,"ha":920,"o":"m 322 452 l 576 452 q 544 551 574 516 q 458 586 513 586 q 367 550 403 586 q 322 452 331 515 m 545 215 l 821 215 q 682 36 786 99 q 422 -26 579 -26 q 128 67 236 -26 q 21 322 21 161 q 138 643 21 523 q 452 764 255 764 q 749 665 647 764 q 851 377 851 566 q 849 342 851 360 q 846 306 848 324 l 310 306 l 310 293 q 342 191 310 226 q 437 156 374 156 q 507 171 479 156 q 545 215 536 187 m 694 825 l 599 825 l 513 959 l 363 825 l 261 825 l 437 1076 l 609 1076 l 694 825 "},"„":{"x_min":-26,"x_max":642,"ha":758,"o":"m 343 0 l 380 262 l 642 262 l 607 16 q 520 -178 588 -114 q 332 -242 452 -242 l 309 -242 l 325 -124 q 333 -124 328 -124 q 344 -125 337 -125 q 421 -94 393 -125 q 460 0 448 -64 l 343 0 m 8 0 l 47 262 l 306 262 l 272 16 q 185 -178 253 -114 q -2 -242 117 -242 l -26 -242 l -7 -123 q 0 -124 -4 -124 q 11 -125 3 -125 q 86 -95 59 -125 q 125 0 113 -65 l 8 0 "},"Â":{"x_min":-79,"x_max":929,"ha":981,"o":"m -79 0 l 409 999 l 728 999 l 929 0 l 627 0 l 612 119 l 294 119 l 244 0 l -79 0 m 373 320 l 579 320 l 526 690 l 373 320 m 789 1086 l 694 1086 l 608 1220 l 458 1086 l 356 1086 l 532 1337 l 704 1337 l 789 1086 "},"Í":{"x_min":24,"x_max":594,"ha":519,"o":"m 24 0 l 175 999 l 496 999 l 344 0 l 24 0 m 226 1086 l 382 1337 l 594 1337 l 328 1086 l 226 1086 "},"´":{"x_min":257,"x_max":625,"ha":694,"o":"m 257 825 l 413 1076 l 625 1076 l 359 825 l 257 825 "},"Ú":{"x_min":77,"x_max":1103,"ha":1124,"o":"m 169 999 l 486 999 l 396 407 q 393 384 394 395 q 392 360 392 372 q 426 257 392 293 q 524 222 460 222 q 644 260 606 222 q 697 402 681 298 l 788 999 l 1103 999 l 1011 389 q 863 70 978 168 q 526 -28 749 -28 q 191 70 306 -28 q 77 356 77 169 q 79 404 77 378 q 86 466 81 430 l 169 999 m 528 1086 l 684 1337 l 896 1337 l 630 1086 l 528 1086 "},"Ý":{"x_min":-4,"x_max":1014,"ha":922,"o":"m 229 0 l 280 365 l -4 999 l 337 999 l 445 682 q 453 645 451 664 q 455 605 455 626 l 455 592 q 464 643 459 623 q 476 676 469 663 l 649 999 l 1014 999 l 600 364 l 547 0 l 229 0 m 428 1086 l 584 1337 l 796 1337 l 530 1086 l 428 1086 "},"Ω":{"x_min":24,"x_max":1134,"ha":1157,"o":"m 1134 237 l 1134 0 l 685 0 l 685 272 q 753 392 730 327 q 777 530 777 457 q 722 708 777 642 q 578 775 668 775 q 434 708 488 775 q 381 530 381 642 q 404 392 381 457 q 473 272 427 327 l 473 0 l 24 0 l 24 237 l 275 237 q 129 379 178 292 q 81 583 81 465 q 217 902 81 780 q 578 1025 354 1025 q 939 902 802 1025 q 1077 583 1077 779 q 1028 379 1077 465 q 882 237 979 292 l 1134 237 "},"Ö":{"x_min":50,"x_max":1089,"ha":1140,"o":"m 599 779 q 431 683 496 779 q 367 434 367 588 q 411 277 367 331 q 539 224 455 224 q 707 322 643 224 q 772 585 772 421 q 725 727 772 676 q 599 779 679 779 m 50 440 q 87 670 50 565 q 198 855 125 776 q 379 982 276 939 q 605 1026 482 1026 q 960 900 831 1026 q 1089 556 1089 775 q 1052 330 1089 434 q 947 151 1016 227 q 762 18 867 63 q 532 -26 658 -26 q 179 99 309 -26 q 50 440 50 225 m 693 1120 l 719 1311 l 889 1311 l 862 1120 l 693 1120 m 447 1120 l 471 1311 l 643 1311 l 616 1120 l 447 1120 "},"z":{"x_min":-7,"x_max":757,"ha":804,"o":"m 757 737 l 729 543 l 355 204 l 729 204 l 698 0 l -7 0 l 20 193 l 402 539 l 58 539 l 85 737 l 757 737 "},"™":{"x_min":111,"x_max":1014,"ha":1157,"o":"m 707 996 l 774 815 l 840 996 l 1014 996 l 1014 617 l 891 617 l 891 866 l 798 617 l 751 617 l 658 866 l 658 617 l 534 617 l 534 996 l 707 996 m 468 996 l 468 894 l 358 894 l 358 617 l 221 617 l 221 894 l 111 894 l 111 996 l 468 996 "},"ã":{"x_min":-3,"x_max":820,"ha":900,"o":"m 516 329 q 401 299 471 314 q 286 212 286 273 q 306 167 286 184 q 360 151 326 151 q 471 197 430 151 q 516 329 512 244 m 503 0 l 494 69 q 370 0 433 22 q 238 -24 307 -24 q 62 32 128 -24 q -3 181 -3 88 q 79 370 -3 308 q 360 454 161 433 q 401 457 375 455 q 543 525 543 470 q 518 571 543 554 q 450 588 493 588 q 377 569 402 588 q 349 513 353 551 l 74 513 q 189 700 91 638 q 471 762 288 762 q 730 702 641 762 q 820 530 820 643 q 817 482 820 511 q 809 420 814 453 l 767 154 q 762 116 763 130 q 760 92 760 101 q 766 52 760 69 q 785 19 772 34 l 785 0 l 503 0 m 746 1054 q 684 920 722 962 q 587 878 646 878 q 562 880 575 878 q 527 890 548 883 l 485 904 q 462 909 473 907 q 442 911 452 911 q 398 894 415 911 q 374 847 381 878 l 293 847 q 354 980 314 936 q 453 1025 394 1025 q 482 1022 465 1025 q 515 1014 498 1019 l 558 999 q 578 994 568 996 q 594 992 587 992 q 638 1006 621 992 q 665 1054 654 1021 l 746 1054 "},"æ":{"x_min":-4,"x_max":1278,"ha":1346,"o":"m 747 452 l 1011 452 q 979 551 1011 515 q 893 588 947 588 q 797 554 834 588 q 747 452 760 520 m 577 104 q 428 7 513 40 q 242 -26 343 -26 q 62 30 128 -26 q -4 182 -4 86 q 79 371 -4 309 q 359 449 162 433 q 410 455 377 451 q 543 526 543 473 q 518 571 543 555 q 449 588 493 588 q 367 569 396 588 q 336 515 339 550 l 72 515 q 181 697 84 631 q 433 764 277 764 q 573 744 515 764 q 669 682 630 724 q 771 743 712 723 q 902 764 829 764 q 1179 661 1080 764 q 1278 372 1278 558 q 1277 332 1278 346 q 1275 306 1276 318 l 733 306 l 733 289 q 768 190 733 226 q 863 154 803 154 q 935 169 906 154 q 979 215 964 185 l 1247 215 q 1105 35 1208 97 q 848 -26 1003 -26 q 679 6 746 -26 q 577 104 611 38 m 516 329 q 401 299 472 314 q 286 212 286 274 q 306 169 286 185 q 360 154 326 154 q 472 199 431 154 q 516 329 512 245 "},"É":{"x_min":22,"x_max":947,"ha":939,"o":"m 22 0 l 174 999 l 947 999 l 910 761 l 449 761 l 427 624 l 837 624 l 801 402 l 392 402 l 371 241 l 862 241 l 827 0 l 22 0 m 456 1086 l 612 1337 l 824 1337 l 558 1086 l 456 1086 "},"~":{"x_min":121,"x_max":1038,"ha":1157,"o":"m 1038 367 q 907 299 968 320 q 786 278 846 278 q 710 285 749 278 q 605 316 671 293 q 474 353 521 344 q 380 363 426 363 q 261 337 323 363 q 121 255 199 311 l 121 459 q 267 533 201 510 q 397 556 333 556 q 481 547 437 556 q 586 520 525 539 q 629 505 601 515 q 789 469 732 469 q 907 493 847 469 q 1038 570 968 518 l 1038 367 "},"³":{"x_min":24,"x_max":578,"ha":603,"o":"m 24 592 l 202 592 q 226 527 203 550 q 290 505 249 505 q 351 524 328 505 q 374 575 374 543 q 347 627 374 611 q 257 645 320 643 l 277 745 l 289 745 q 373 761 343 745 q 404 807 404 777 q 384 848 404 833 q 330 864 364 864 q 272 848 293 864 q 246 803 251 833 l 77 803 q 157 941 89 893 q 338 990 224 990 q 514 946 450 990 q 578 826 578 903 q 554 744 578 779 q 485 689 530 708 q 541 640 523 670 q 560 569 560 611 q 489 427 560 479 q 293 376 418 376 q 94 430 165 376 q 24 585 24 485 l 24 592 "},"¡":{"x_min":54,"x_max":497,"ha":521,"o":"m 381 612 l 355 0 l 54 0 l 216 612 l 381 612 m 497 999 l 454 721 l 163 721 l 204 999 l 497 999 "},"[":{"x_min":39,"x_max":647,"ha":600,"o":"m 39 -288 l 229 999 l 647 999 l 616 791 l 453 791 l 329 -80 l 486 -80 l 458 -288 l 39 -288 "},"%":{"x_min":32,"x_max":1382,"ha":1415,"o":"m 965 272 q 998 190 965 223 q 1079 158 1031 158 q 1162 191 1128 158 q 1196 272 1196 225 q 1162 355 1196 321 q 1079 389 1128 389 q 998 355 1031 389 q 965 272 965 321 m 779 273 q 865 487 779 400 q 1079 575 952 575 q 1292 486 1203 575 q 1382 273 1382 397 q 1292 60 1382 149 q 1079 -28 1203 -28 q 865 59 952 -28 q 779 273 779 146 m 360 -28 l 915 1002 l 1053 1002 l 498 -28 l 360 -28 m 218 699 q 251 618 218 651 q 334 585 285 585 q 415 618 382 585 q 449 699 449 651 q 415 782 449 748 q 334 816 382 816 q 251 782 285 816 q 218 699 218 748 m 32 700 q 119 914 32 827 q 333 1002 206 1002 q 546 913 457 1002 q 635 700 635 824 q 546 487 635 576 q 333 399 457 399 q 119 486 206 399 q 32 700 32 573 "},"P":{"x_min":22,"x_max":995,"ha":1002,"o":"m 413 558 l 524 558 q 653 584 615 558 q 691 670 691 610 q 658 741 691 719 q 554 764 625 764 l 446 764 l 413 558 m 22 0 l 171 999 l 582 999 q 894 922 794 999 q 995 687 995 846 q 886 412 995 503 q 557 322 777 322 l 382 322 l 337 0 l 22 0 "},"∏":{"x_min":94,"x_max":1043,"ha":1145,"o":"m 94 999 l 1043 999 l 1043 -266 l 722 -266 l 722 733 l 415 733 l 415 -266 l 94 -266 l 94 999 "},"_":{"x_min":0,"x_max":694,"ha":694,"o":"m 694 -137 l 694 -328 l 0 -328 l 0 -137 l 694 -137 "},"ñ":{"x_min":5,"x_max":851,"ha":930,"o":"m 5 0 l 113 737 l 373 737 l 360 640 q 475 729 414 700 q 608 758 536 758 q 785 694 720 758 q 851 522 851 630 q 848 477 851 501 q 842 425 846 452 l 784 0 l 499 0 l 556 416 q 560 440 559 432 q 561 454 561 448 q 536 514 561 491 q 470 538 511 538 q 387 502 417 538 q 345 393 356 467 l 290 0 l 5 0 m 755 1054 q 693 920 731 962 q 596 878 655 878 q 571 880 584 878 q 536 890 557 883 l 494 904 q 471 909 482 907 q 451 911 461 911 q 407 894 424 911 q 383 847 390 878 l 302 847 q 363 980 323 936 q 462 1025 403 1025 q 491 1022 474 1025 q 524 1014 507 1019 l 567 999 q 587 994 577 996 q 603 992 596 992 q 647 1006 630 992 q 674 1054 663 1021 l 755 1054 "},"‚":{"x_min":-26,"x_max":309,"ha":425,"o":"m 8 0 l 47 262 l 309 262 l 272 16 q 185 -178 254 -114 q -2 -242 117 -242 l -26 -242 l -7 -123 q 0 -124 -4 -124 q 11 -125 3 -125 q 86 -95 59 -125 q 125 0 113 -65 l 8 0 "},"Æ":{"x_min":-79,"x_max":1454,"ha":1392,"o":"m 404 320 l 617 320 l 686 769 l 608 769 l 404 320 m -79 0 l 476 999 l 1454 999 l 1417 761 l 988 761 l 966 624 l 1344 624 l 1308 402 l 931 402 l 909 241 l 1369 241 l 1334 0 l 568 0 l 587 119 l 309 119 l 254 0 l -79 0 "},"₣":{"x_min":22,"x_max":1439,"ha":1423,"o":"m 22 0 l 173 999 l 876 999 l 837 754 l 448 754 l 423 596 l 754 596 l 716 358 l 388 358 l 336 0 l 22 0 m 843 0 l 947 737 l 1208 737 l 1192 630 q 1287 728 1236 696 q 1403 760 1338 760 q 1434 757 1414 760 q 1439 757 1437 757 l 1399 475 q 1375 477 1390 476 q 1333 481 1344 481 q 1217 438 1254 481 q 1163 282 1179 396 l 1123 0 l 843 0 "},"ğ":{"x_min":-3,"x_max":870,"ha":920,"o":"m 436 547 q 340 492 376 547 q 305 346 305 438 q 335 252 305 286 q 418 219 365 219 q 520 270 483 219 q 557 412 557 321 q 525 512 557 478 q 436 547 494 547 m -3 -85 l 276 -85 q 303 -122 282 -110 q 359 -135 324 -135 q 458 -85 426 -135 q 502 89 490 -35 q 412 27 460 47 q 309 7 365 7 q 97 90 172 7 q 22 324 22 174 q 121 638 22 514 q 372 762 221 762 q 509 731 452 762 q 608 635 566 700 l 622 737 l 870 737 l 781 82 q 741 -92 766 -26 q 673 -200 716 -158 q 542 -275 622 -250 q 349 -300 461 -300 q 93 -243 186 -300 q -3 -85 1 -187 m 331 1054 l 420 1054 l 420 1047 q 444 981 420 1002 q 518 960 468 960 q 609 983 572 960 q 668 1054 646 1006 l 760 1054 q 666 898 730 950 q 507 846 603 846 q 373 891 418 846 q 329 1026 329 936 q 330 1039 329 1030 q 331 1054 331 1049 "},"ª":{"x_min":-3,"x_max":615,"ha":675,"o":"m 387 712 q 300 690 353 701 q 215 630 215 673 q 230 598 215 610 q 270 587 245 587 q 353 620 322 587 q 387 712 384 653 m 377 482 l 370 530 q 277 481 325 497 q 178 465 229 465 q 46 504 96 465 q -3 609 -3 544 q 59 741 -3 697 q 271 800 121 785 q 298 802 280 800 q 407 849 407 811 q 388 882 407 870 q 337 894 369 894 q 282 881 301 894 q 260 841 263 868 l 55 841 q 142 972 68 929 q 353 1015 215 1015 q 548 973 481 1015 q 615 852 615 932 q 612 816 615 836 q 606 776 610 797 l 576 590 q 573 574 575 584 q 570 547 570 554 q 575 518 570 530 q 589 495 580 505 l 589 482 l 377 482 "},"Œ":{"x_min":52,"x_max":1577,"ha":1604,"o":"m 693 0 l 710 82 q 594 1 659 28 q 451 -26 529 -26 q 163 104 274 -26 q 52 441 52 234 q 90 668 52 561 q 200 858 128 775 q 365 983 272 940 q 567 1026 459 1026 q 716 997 651 1026 q 833 909 782 969 l 847 999 l 1577 999 l 1541 761 l 1079 761 l 1058 624 l 1468 624 l 1431 402 l 1022 402 l 1002 241 l 1493 241 l 1457 0 l 693 0 m 609 782 q 435 686 502 782 q 369 436 369 591 q 412 279 369 337 q 529 222 456 222 q 707 318 640 222 q 774 575 774 414 q 732 729 774 677 q 609 782 690 782 "},"T":{"x_min":10,"x_max":924,"ha":852,"o":"m 183 0 l 293 745 l 10 745 l 52 999 l 924 999 l 880 745 l 610 745 l 501 0 l 183 0 "},"š":{"x_min":8,"x_max":769,"ha":831,"o":"m 8 248 l 280 248 q 306 170 280 197 q 378 143 331 143 q 442 160 417 143 q 467 205 467 178 q 446 247 467 229 q 378 280 426 264 l 368 284 q 68 530 68 392 q 158 702 68 643 q 421 762 249 762 q 673 702 584 762 q 769 529 762 642 l 510 529 l 510 534 q 485 588 510 568 q 416 608 460 608 q 360 593 380 608 q 340 554 340 579 q 362 513 340 529 q 451 475 385 496 q 506 458 470 469 q 647 404 603 429 q 721 334 694 378 q 749 240 749 289 q 654 45 749 114 q 384 -24 559 -24 q 107 46 206 -24 q 8 242 8 116 l 8 248 m 280 1076 l 376 1076 l 462 939 l 612 1076 l 715 1076 l 538 825 l 366 825 l 280 1076 "},"Þ":{"x_min":22,"x_max":980,"ha":1002,"o":"m 398 432 l 508 432 q 638 458 600 432 q 676 544 676 484 q 643 613 676 591 q 538 636 610 636 l 430 636 l 398 432 m 22 0 l 171 999 l 486 999 l 467 871 l 568 871 q 880 795 780 871 q 980 559 980 719 q 870 286 980 377 q 541 196 761 196 l 368 196 l 337 0 l 22 0 "},"j":{"x_min":-138,"x_max":439,"ha":446,"o":"m 128 818 l 155 1023 l 439 1023 l 410 818 l 128 818 m -138 -283 l -114 -80 q -96 -81 -107 -80 q -82 -82 -86 -82 q -9 -66 -28 -82 q 17 2 8 -50 l 117 737 l 400 737 l 294 -25 q 252 -179 280 -127 q 173 -257 225 -232 q 96 -281 140 -273 q -11 -289 52 -289 q -125 -284 -46 -289 q -138 -283 -133 -283 "},"1":{"x_min":157,"x_max":736,"ha":913,"o":"m 308 0 l 394 604 q 283 584 342 590 q 157 578 224 578 l 187 775 q 385 831 307 784 q 515 974 462 878 l 736 974 l 591 0 l 308 0 "},"›":{"x_min":-4,"x_max":309,"ha":359,"o":"m 77 640 l 309 471 l 278 265 l -4 97 l 22 287 l 175 379 l 50 467 l 77 640 "},"<":{"x_min":179,"x_max":978,"ha":1157,"o":"m 978 635 l 434 413 l 978 191 l 978 -11 l 179 319 l 179 509 l 978 840 l 978 635 "},"t":{"x_min":0,"x_max":517,"ha":513,"o":"m 422 0 q 340 -7 379 -4 q 264 -10 300 -10 q 105 34 161 -10 q 49 161 49 79 q 51 196 49 176 q 57 242 53 216 l 104 574 l 0 574 l 25 737 l 129 737 l 161 964 l 437 964 l 404 737 l 517 737 l 493 574 l 380 574 l 339 288 q 338 280 338 285 q 337 267 337 276 q 356 224 337 237 q 417 212 375 212 q 439 212 432 212 q 452 213 445 212 l 422 0 "},"¬":{"x_min":172,"x_max":984,"ha":1157,"o":"m 984 589 l 984 249 l 800 249 l 800 409 l 172 409 l 172 589 l 984 589 "},"ù":{"x_min":41,"x_max":890,"ha":930,"o":"m 524 0 l 533 100 q 422 9 485 40 q 287 -22 359 -22 q 106 44 171 -22 q 41 229 41 111 q 42 262 41 245 q 45 295 43 278 l 109 737 l 394 737 l 337 343 q 334 318 335 331 q 333 292 333 305 q 356 228 333 251 q 424 205 380 205 q 506 236 476 205 q 546 336 535 267 l 606 737 l 890 737 l 782 0 l 524 0 m 331 1076 l 515 1076 l 627 825 l 531 825 l 331 1076 "},"ï":{"x_min":5,"x_max":515,"ha":440,"o":"m 5 0 l 112 737 l 397 737 l 289 0 l 5 0 m 319 859 l 345 1050 l 515 1050 l 488 859 l 319 859 m 73 859 l 97 1050 l 269 1050 l 242 859 l 73 859 "},"Ò":{"x_min":50,"x_max":1089,"ha":1140,"o":"m 599 779 q 431 683 496 779 q 367 434 367 588 q 411 277 367 331 q 539 224 455 224 q 707 322 643 224 q 772 585 772 421 q 725 727 772 676 q 599 779 679 779 m 50 440 q 87 670 50 565 q 198 855 125 776 q 379 982 276 939 q 605 1026 482 1026 q 960 900 831 1026 q 1089 556 1089 775 q 1052 330 1089 434 q 947 151 1016 227 q 762 18 867 63 q 532 -26 658 -26 q 179 99 309 -26 q 50 440 50 225 m 457 1337 l 641 1337 l 753 1086 l 657 1086 l 457 1337 "},"&":{"x_min":41,"x_max":1083,"ha":1132,"o":"m 717 0 l 683 54 q 541 -5 616 14 q 385 -26 466 -26 q 133 57 225 -26 q 41 283 41 140 q 104 465 41 388 q 299 597 168 542 q 247 687 264 642 q 230 779 230 733 q 316 954 230 887 q 542 1022 402 1022 q 794 943 696 1022 q 893 744 893 865 q 841 594 893 662 q 688 472 790 526 l 759 373 q 797 407 779 388 q 829 449 814 426 l 1083 449 q 1012 316 1060 381 q 888 190 963 252 l 1016 0 l 717 0 m 439 412 q 348 354 377 385 q 319 282 319 322 q 343 219 319 242 q 409 196 368 196 q 481 208 444 196 q 552 244 517 220 l 439 412 m 551 645 q 632 697 604 667 q 661 759 661 727 q 634 821 661 798 q 562 844 607 844 q 498 823 521 844 q 476 764 476 802 q 495 706 476 737 q 551 645 515 675 "},"":{"x_min":-34,"x_max":926,"ha":913,"o":"m 652 537 l 381 537 q 375 484 378 520 q 373 459 374 467 l 616 459 l 580 378 l 372 378 l 372 372 q 401 243 372 290 q 483 197 430 197 q 566 226 534 197 q 616 316 599 255 l 898 316 q 748 64 860 154 q 475 -25 636 -25 q 203 81 306 -25 q 88 378 100 188 l -34 378 l 5 459 l 87 459 q 89 492 87 474 q 93 537 91 510 l -4 537 l 31 616 l 110 616 q 150 727 125 674 q 211 831 175 781 q 360 959 273 915 q 550 1004 446 1004 q 814 917 718 1004 q 926 666 910 831 l 658 666 q 625 756 651 724 q 556 788 599 788 q 458 746 498 788 q 395 616 419 704 l 689 616 l 652 537 "},"˝":{"x_min":227,"x_max":750,"ha":694,"o":"m 431 825 l 561 1076 l 750 1076 l 512 825 l 431 825 m 227 825 l 325 1076 l 509 1076 l 301 825 l 227 825 "},"I":{"x_min":24,"x_max":496,"ha":519,"o":"m 24 0 l 175 999 l 496 999 l 344 0 l 24 0 "},"G":{"x_min":52,"x_max":1060,"ha":1104,"o":"m 766 0 l 759 75 q 637 -2 706 22 q 485 -28 569 -28 q 170 99 289 -28 q 52 437 52 226 q 86 665 52 561 q 189 846 121 770 q 367 979 267 936 q 596 1023 467 1023 q 921 927 801 1023 q 1060 654 1041 832 l 764 654 q 710 745 753 712 q 601 779 667 779 q 431 683 495 779 q 367 427 367 587 q 412 271 367 325 q 543 218 457 218 q 645 246 599 218 q 721 330 691 275 l 583 330 l 616 536 l 1051 536 l 969 0 l 766 0 "},"`":{"x_min":200,"x_max":496,"ha":694,"o":"m 200 1076 l 384 1076 l 496 825 l 400 825 l 200 1076 "},"·":{"x_min":62,"x_max":393,"ha":457,"o":"m 62 491 q 109 609 62 561 q 227 657 157 657 q 344 608 295 657 q 393 491 393 560 q 344 374 393 423 q 227 326 296 326 q 110 374 158 326 q 62 491 62 422 "},"¿":{"x_min":26,"x_max":784,"ha":871,"o":"m 579 625 q 543 472 575 530 q 437 369 510 413 q 402 349 425 362 q 307 242 307 293 q 329 185 307 206 q 391 164 352 164 q 473 194 445 164 q 503 285 501 225 l 784 285 q 674 47 779 135 q 394 -41 569 -41 q 124 32 223 -41 q 26 232 26 106 q 62 369 26 315 q 220 493 99 423 q 306 557 285 529 q 327 622 327 584 l 327 625 l 579 625 m 655 999 l 610 703 l 316 703 l 362 999 l 655 999 "},"ý":{"x_min":-32,"x_max":827,"ha":790,"o":"m -4 -86 q 50 -91 33 -90 q 79 -93 67 -93 q 141 -74 120 -93 q 161 -15 161 -55 q 159 20 161 1 q 152 56 156 39 l 13 737 l 287 737 l 347 273 l 539 737 l 827 737 l 428 -82 q 300 -250 369 -202 q 120 -298 231 -298 q 55 -294 94 -298 q -32 -285 17 -291 l -4 -86 m 306 825 l 462 1076 l 674 1076 l 408 825 l 306 825 "},"º":{"x_min":16,"x_max":642,"ha":685,"o":"m 342 878 q 262 833 290 878 q 234 706 234 789 q 253 631 234 655 q 315 607 273 607 q 394 651 365 607 q 424 772 424 696 q 403 851 424 825 q 342 878 382 878 m 16 714 q 105 935 16 852 q 347 1018 195 1018 q 562 950 483 1018 q 642 769 642 883 q 554 545 642 626 q 313 464 467 464 q 95 531 175 464 q 16 714 16 598 "},"∞":{"x_min":123,"x_max":1034,"ha":1157,"o":"m 660 380 q 725 321 687 341 q 809 302 762 302 q 902 331 866 302 q 938 404 938 360 q 905 478 938 448 q 826 509 872 509 q 742 479 781 509 q 660 380 704 449 m 495 442 q 430 501 467 481 q 346 521 394 521 q 254 491 289 521 q 219 416 219 462 q 251 343 219 373 q 330 314 283 314 q 414 343 376 314 q 495 442 452 373 m 579 536 q 680 665 626 623 q 799 708 735 708 q 965 622 896 708 q 1034 410 1034 537 q 972 197 1034 279 q 814 115 911 115 q 703 150 754 115 q 575 287 651 186 q 476 157 530 199 q 357 115 422 115 q 191 200 259 115 q 123 412 123 285 q 183 626 123 544 q 341 708 244 708 q 450 672 398 708 q 579 536 501 636 "},";":{"x_min":17,"x_max":442,"ha":489,"o":"m 103 441 l 148 737 l 442 737 l 396 441 l 103 441 m 31 0 l 78 296 l 371 296 l 325 0 q 229 -178 306 -119 q 17 -238 152 -238 l 34 -112 q 126 -85 94 -112 q 169 0 159 -58 l 31 0 "},"6":{"x_min":47,"x_max":891,"ha":913,"o":"m 891 731 l 624 710 q 587 775 615 752 q 514 799 559 799 q 401 743 444 799 q 352 587 359 688 q 444 631 395 616 q 550 646 494 646 q 775 562 689 646 q 862 343 862 478 q 755 73 862 171 q 460 -25 648 -25 q 155 84 263 -25 q 47 392 47 194 q 173 840 47 679 q 525 1002 300 1002 q 779 932 684 1002 q 891 731 874 862 m 455 182 q 553 222 517 182 q 589 333 589 262 q 556 420 589 388 q 465 452 524 452 q 366 411 402 452 q 330 300 330 371 q 363 213 330 245 q 455 182 396 182 "},"n":{"x_min":5,"x_max":851,"ha":930,"o":"m 5 0 l 113 737 l 373 737 l 360 640 q 475 729 414 700 q 608 758 536 758 q 785 694 720 758 q 851 522 851 630 q 848 477 851 501 q 842 425 846 452 l 784 0 l 499 0 l 556 416 q 560 440 559 432 q 561 454 561 448 q 536 514 561 491 q 470 538 511 538 q 387 502 417 538 q 345 393 356 467 l 290 0 l 5 0 "},"¤":{"x_min":-34,"x_max":926,"ha":913,"o":"m 652 537 l 381 537 q 375 484 378 520 q 373 459 374 467 l 616 459 l 580 378 l 372 378 l 372 372 q 401 243 372 290 q 483 197 430 197 q 566 226 534 197 q 616 316 599 255 l 898 316 q 748 64 860 154 q 475 -25 636 -25 q 203 81 306 -25 q 88 378 100 188 l -34 378 l 5 459 l 87 459 q 89 492 87 474 q 93 537 91 510 l -4 537 l 31 616 l 110 616 q 150 727 125 674 q 211 831 175 781 q 360 959 273 915 q 550 1004 446 1004 q 814 917 718 1004 q 926 666 910 831 l 658 666 q 625 756 651 724 q 556 788 599 788 q 458 746 498 788 q 395 616 419 704 l 689 616 l 652 537 "},"∂":{"x_min":25,"x_max":745,"ha":772,"o":"m 522 485 q 546 627 539 571 q 553 729 553 684 q 535 837 553 800 q 482 874 517 874 q 443 859 460 874 q 408 811 426 845 q 346 730 378 757 q 277 704 313 704 q 207 729 235 704 q 180 794 180 755 q 249 894 180 853 q 419 936 319 936 q 658 825 571 936 q 745 520 745 715 q 631 134 745 284 q 337 -16 517 -16 q 108 62 191 -16 q 25 278 25 140 q 110 509 25 416 q 319 602 196 602 q 436 572 384 602 q 522 485 487 542 m 471 375 q 447 492 471 452 q 380 532 424 532 q 278 436 319 532 q 237 196 237 341 q 260 79 237 118 q 328 40 283 40 q 430 135 390 40 q 471 375 471 230 "},"p":{"x_min":-29,"x_max":879,"ha":940,"o":"m 485 553 q 379 493 419 553 q 340 331 340 433 q 369 234 340 269 q 451 200 398 200 q 553 259 515 200 q 591 422 591 319 q 563 519 591 485 q 485 553 536 553 m -29 -286 l 115 737 l 372 737 l 360 649 q 460 735 404 707 q 587 764 516 764 q 801 673 724 764 q 879 421 879 582 q 781 97 879 222 q 533 -28 684 -28 q 398 1 456 -28 q 307 87 339 31 l 254 -286 l -29 -286 "},"‡":{"x_min":-39,"x_max":711,"ha":694,"o":"m 169 85 l -39 85 l -12 261 l 195 261 l 244 591 l 35 591 l 62 768 l 270 768 l 305 999 l 531 999 l 496 768 l 711 768 l 684 591 l 470 591 l 420 261 l 635 261 l 609 85 l 394 85 l 360 -146 l 134 -146 l 169 85 "},"√":{"x_min":57,"x_max":949,"ha":946,"o":"m 949 1178 l 949 1061 l 890 1061 l 491 -28 l 394 -28 l 190 532 l 84 492 l 57 597 l 324 691 l 466 284 l 794 1178 l 949 1178 "},"S":{"x_min":14,"x_max":930,"ha":983,"o":"m 14 318 l 324 318 l 324 315 q 362 231 324 260 q 473 202 400 202 q 554 222 526 202 q 582 282 582 243 q 456 384 582 331 q 409 404 426 397 q 170 551 233 482 q 108 722 108 620 q 213 945 108 865 q 508 1025 318 1025 q 807 940 697 1025 q 930 701 918 855 l 632 701 q 593 777 625 752 q 502 802 561 802 q 437 782 462 802 q 412 733 412 762 q 562 627 412 689 q 658 586 622 602 q 836 462 779 533 q 893 294 893 391 q 780 58 893 142 q 463 -26 667 -26 q 132 64 250 -26 q 14 318 14 155 "},"/":{"x_min":-8,"x_max":486,"ha":469,"o":"m 116 -129 l -8 -129 l 360 1025 l 486 1025 l 116 -129 "},"y":{"x_min":-32,"x_max":827,"ha":790,"o":"m -4 -86 q 50 -91 33 -90 q 79 -93 67 -93 q 141 -74 120 -93 q 161 -15 161 -55 q 159 20 161 1 q 152 56 156 39 l 13 737 l 287 737 l 347 273 l 539 737 l 827 737 l 428 -82 q 300 -250 369 -202 q 120 -298 231 -298 q 55 -294 94 -298 q -32 -285 17 -291 l -4 -86 "},"≈":{"x_min":121,"x_max":1038,"ha":1157,"o":"m 1038 208 q 905 140 966 162 q 785 119 844 119 q 595 162 726 119 q 380 206 464 206 q 263 180 325 206 q 121 98 202 155 l 121 302 q 265 375 199 352 q 399 398 331 398 q 608 354 479 398 q 790 311 736 311 q 905 334 846 311 q 1038 411 963 357 l 1038 208 m 1038 524 q 905 455 966 476 q 786 434 845 434 q 595 478 726 434 q 380 522 464 522 q 263 497 323 522 q 121 415 203 472 l 121 618 q 266 691 199 668 q 399 714 332 714 q 608 670 479 714 q 790 627 736 627 q 906 650 848 627 q 1038 728 965 674 l 1038 524 "},"g":{"x_min":-3,"x_max":870,"ha":920,"o":"m 436 547 q 340 492 376 547 q 305 346 305 438 q 335 252 305 286 q 418 219 365 219 q 520 270 483 219 q 557 412 557 321 q 525 512 557 478 q 436 547 494 547 m -3 -85 l 276 -85 q 303 -122 282 -110 q 359 -135 324 -135 q 458 -85 426 -135 q 502 89 490 -35 q 412 27 460 47 q 309 7 365 7 q 97 90 172 7 q 22 324 22 174 q 121 638 22 514 q 372 762 221 762 q 509 731 452 762 q 608 635 566 700 l 622 737 l 870 737 l 781 82 q 741 -92 766 -26 q 673 -200 716 -158 q 542 -275 622 -250 q 349 -300 461 -300 q 93 -243 186 -300 q -3 -85 1 -187 "},"²":{"x_min":12,"x_max":565,"ha":603,"o":"m 12 392 l 12 397 q 24 480 12 444 q 63 543 37 516 q 126 596 89 568 q 208 652 162 623 q 252 680 223 662 q 378 805 378 759 q 358 848 378 832 q 305 864 338 864 q 241 837 263 864 q 218 761 219 811 l 49 761 q 125 933 53 872 q 320 994 196 994 q 499 946 433 994 q 565 818 565 899 q 542 734 565 770 q 466 659 520 697 q 370 604 444 643 q 248 534 296 564 l 548 534 l 524 392 l 12 392 "},"ë":{"x_min":21,"x_max":851,"ha":920,"o":"m 322 452 l 576 452 q 544 551 574 516 q 458 586 513 586 q 367 550 403 586 q 322 452 331 515 m 545 215 l 821 215 q 682 36 786 99 q 422 -26 579 -26 q 128 67 236 -26 q 21 322 21 161 q 138 643 21 523 q 452 764 255 764 q 749 665 647 764 q 851 377 851 566 q 849 342 851 360 q 846 306 848 324 l 310 306 l 310 293 q 342 191 310 226 q 437 156 374 156 q 507 171 479 156 q 545 215 536 187 m 536 859 l 562 1050 l 732 1050 l 705 859 l 536 859 m 290 859 l 314 1050 l 486 1050 l 459 859 l 290 859 "},"–":{"x_min":-33,"x_max":691,"ha":694,"o":"m -33 269 l -4 468 l 691 468 l 661 269 l -33 269 "},"ƒ":{"x_min":22,"x_max":811,"ha":913,"o":"m 22 -219 l 57 -44 q 106 -53 87 -50 q 137 -56 125 -56 q 199 -33 177 -56 q 230 40 221 -10 l 299 485 l 159 485 l 159 640 l 325 640 q 425 931 354 845 q 633 1018 496 1018 q 723 1011 679 1018 q 811 992 768 1005 l 779 816 l 772 817 q 698 829 719 829 q 636 803 657 829 q 604 703 616 778 l 592 640 l 748 640 l 748 485 l 568 485 l 516 155 q 408 -161 479 -78 q 186 -245 337 -245 q 104 -238 145 -245 q 22 -219 64 -232 "},"J":{"x_min":3,"x_max":849,"ha":868,"o":"m 15 420 l 290 420 l 284 356 q 280 326 281 340 q 279 303 279 313 q 296 239 279 260 q 349 219 313 219 q 405 241 387 219 q 434 334 423 264 l 534 999 l 849 999 l 748 322 q 697 137 729 198 q 607 35 666 76 q 500 -9 566 6 q 355 -26 433 -26 q 95 57 188 -26 q 3 291 3 141 q 6 350 3 317 q 15 420 9 382 "},"Ã":{"x_min":-79,"x_max":929,"ha":981,"o":"m -79 0 l 409 999 l 728 999 l 929 0 l 627 0 l 612 119 l 294 119 l 244 0 l -79 0 m 373 320 l 579 320 l 526 690 l 373 320 m 832 1315 q 770 1181 808 1223 q 673 1139 732 1139 q 648 1141 661 1139 q 613 1151 634 1144 l 571 1165 q 548 1170 559 1168 q 528 1172 538 1172 q 484 1155 501 1172 q 460 1108 467 1139 l 379 1108 q 440 1241 400 1197 q 539 1286 480 1286 q 568 1283 551 1286 q 601 1275 584 1280 l 644 1260 q 664 1255 654 1257 q 680 1253 673 1253 q 724 1267 707 1253 q 751 1315 740 1282 l 832 1315 "},"©":{"x_min":69,"x_max":1088,"ha":1157,"o":"m 668 597 q 642 664 666 639 q 579 689 618 689 q 502 640 530 689 q 474 504 474 592 q 501 371 474 415 q 585 327 529 327 q 647 351 625 327 q 671 424 668 376 l 839 424 q 765 263 834 323 q 581 204 695 204 q 373 282 449 204 q 298 499 298 361 q 373 718 298 634 q 568 802 448 802 q 757 747 688 802 q 832 597 826 693 l 668 597 m 984 502 q 953 657 984 583 q 866 788 922 731 q 734 877 807 847 q 578 908 661 908 q 422 878 495 908 q 293 791 349 849 q 204 657 235 732 q 173 502 173 583 q 203 348 173 421 q 292 217 234 274 q 423 127 350 158 q 578 97 497 97 q 733 128 659 97 q 867 218 807 159 q 954 346 925 274 q 984 502 984 419 m 577 1012 q 775 974 682 1012 q 940 863 868 936 q 1049 698 1011 792 q 1088 502 1088 605 q 1050 306 1088 397 q 940 145 1012 215 q 771 32 865 72 q 577 -7 677 -7 q 384 31 476 -7 q 219 144 293 70 q 107 308 146 216 q 69 502 69 401 q 107 698 69 604 q 220 866 146 791 q 382 974 290 937 q 577 1012 473 1012 "},"˘":{"x_min":216,"x_max":647,"ha":694,"o":"m 218 1054 l 307 1054 l 307 1047 q 331 981 307 1002 q 405 960 355 960 q 496 983 459 960 q 555 1054 533 1006 l 647 1054 q 553 898 617 950 q 394 846 490 846 q 260 891 305 846 q 216 1026 216 936 q 217 1039 216 1030 q 218 1054 218 1049 "},"≥":{"x_min":172,"x_max":986,"ha":1157,"o":"m 986 160 l 986 -24 l 172 -24 l 172 160 l 986 160 m 984 616 l 984 455 l 173 204 l 173 394 l 651 536 l 173 677 l 173 869 l 984 616 "},"D":{"x_min":22,"x_max":1032,"ha":1080,"o":"m 374 248 l 448 248 q 563 259 524 248 q 631 298 602 271 q 690 402 667 332 q 714 550 714 471 q 670 709 714 663 q 520 756 627 756 l 448 756 l 374 248 m 22 0 l 170 999 l 568 999 q 801 965 718 999 q 945 849 884 931 q 1009 718 987 795 q 1032 551 1032 641 q 890 141 1032 283 q 483 0 749 0 l 22 0 "},"ÿ":{"x_min":-32,"x_max":827,"ha":790,"o":"m -4 -86 q 50 -91 33 -90 q 79 -93 67 -93 q 141 -74 120 -93 q 161 -15 161 -55 q 159 20 161 1 q 152 56 156 39 l 13 737 l 287 737 l 347 273 l 539 737 l 827 737 l 428 -82 q 300 -250 369 -202 q 120 -298 231 -298 q 55 -294 94 -298 q -32 -285 17 -291 l -4 -86 m 485 859 l 511 1050 l 681 1050 l 654 859 l 485 859 m 239 859 l 263 1050 l 435 1050 l 408 859 l 239 859 "},"ł":{"x_min":-64,"x_max":522,"ha":457,"o":"m 18 0 l 64 348 l 6 314 l -64 436 l 89 524 l 153 999 l 437 999 l 392 674 l 451 708 l 522 585 l 369 497 l 302 0 l 18 0 "},"Ł":{"x_min":-60,"x_max":842,"ha":859,"o":"m 30 0 l 82 333 l 16 294 l -60 428 l 112 527 l 183 999 l 499 999 l 456 705 l 623 803 l 700 666 l 428 511 l 389 260 l 842 260 l 804 0 l 30 0 "},"$":{"x_min":15,"x_max":886,"ha":913,"o":"m 439 641 l 467 823 l 457 823 q 364 800 397 823 q 332 735 332 778 q 357 680 332 702 q 439 641 382 658 m 318 -125 l 336 -7 q 100 95 184 11 q 15 316 17 179 l 252 316 q 285 221 256 257 q 370 173 314 185 l 404 405 q 176 528 247 456 q 105 705 105 600 q 201 919 105 841 q 469 996 298 996 l 486 996 l 496 1060 l 593 1060 l 583 990 q 805 895 730 970 q 886 686 879 820 l 662 686 q 634 780 662 747 q 550 818 606 814 l 520 612 q 778 482 699 556 q 858 300 858 409 q 754 70 858 152 q 465 -11 651 -11 q 448 -10 460 -11 q 431 -10 436 -10 l 414 -125 l 318 -125 m 453 168 l 458 168 q 573 193 534 168 q 613 270 613 219 q 584 333 613 309 q 484 377 555 357 l 453 168 "},"w":{"x_min":18,"x_max":1243,"ha":1222,"o":"m 131 0 l 18 737 l 285 737 l 324 305 l 502 737 l 749 737 l 800 309 l 964 737 l 1243 737 l 927 0 l 640 0 l 585 442 l 414 0 l 131 0 "},"\\":{"x_min":109,"x_max":356,"ha":469,"o":"m 356 -129 l 232 -129 l 109 1025 l 233 1025 l 356 -129 "},"∫":{"x_min":35,"x_max":871,"ha":903,"o":"m 257 -166 q 293 -137 276 -166 q 322 -60 311 -109 q 339 200 335 2 q 346 399 342 326 q 443 903 361 749 q 693 1057 525 1057 q 822 1017 773 1057 q 871 915 871 977 q 839 838 871 868 q 761 809 808 809 q 692 836 715 809 q 669 918 669 864 q 670 925 669 919 q 671 935 671 931 q 665 961 671 953 q 647 970 659 970 q 562 521 577 970 q 560 461 560 482 q 535 133 552 235 q 485 -47 518 31 q 372 -201 441 -149 q 211 -253 303 -253 q 83 -214 131 -253 q 35 -111 35 -175 q 65 -33 35 -62 q 147 -5 95 -5 q 212 -30 189 -5 q 236 -101 236 -56 q 235 -122 236 -110 q 234 -138 234 -134 q 240 -158 234 -151 q 257 -166 246 -166 "},"Ì":{"x_min":24,"x_max":496,"ha":519,"o":"m 24 0 l 175 999 l 496 999 l 344 0 l 24 0 m 169 1337 l 353 1337 l 465 1086 l 369 1086 l 169 1337 "},"Ç":{"x_min":52,"x_max":1052,"ha":1082,"o":"m 725 380 l 1032 380 q 867 79 998 187 q 539 -29 736 -29 q 182 99 312 -29 q 52 453 52 228 q 88 667 52 564 q 195 851 125 771 q 372 981 269 937 q 600 1026 475 1026 q 922 921 807 1026 q 1052 618 1037 817 l 754 618 q 711 738 751 695 q 599 781 671 781 q 431 685 495 781 q 367 434 367 590 q 408 274 367 328 q 529 221 449 221 q 649 262 598 221 q 725 380 699 303 m 299 -297 l 333 -207 q 417 -233 377 -224 q 493 -243 457 -243 q 541 -229 523 -243 q 559 -192 559 -215 q 534 -156 559 -167 q 451 -146 510 -146 l 423 -146 l 474 0 l 551 0 l 529 -63 q 648 -93 609 -64 q 688 -180 688 -123 q 638 -297 688 -256 q 499 -338 589 -338 q 413 -327 463 -338 q 299 -297 364 -317 "},"C":{"x_min":52,"x_max":1052,"ha":1082,"o":"m 725 380 l 1032 380 q 867 79 998 187 q 539 -29 736 -29 q 182 99 312 -29 q 52 453 52 228 q 88 667 52 564 q 195 851 125 771 q 372 981 269 937 q 600 1026 475 1026 q 922 921 807 1026 q 1052 618 1037 817 l 754 618 q 711 738 751 695 q 599 781 671 781 q 431 685 495 781 q 367 434 367 590 q 408 274 367 328 q 529 221 449 221 q 649 262 598 221 q 725 380 699 303 "},"!":{"x_min":54,"x_max":497,"ha":521,"o":"m 169 386 l 195 999 l 497 999 l 333 386 l 169 386 m 54 0 l 96 278 l 388 278 l 346 0 l 54 0 "},"ç":{"x_min":20,"x_max":829,"ha":886,"o":"m 538 286 l 817 286 q 683 54 787 134 q 414 -25 579 -25 q 125 69 231 -25 q 20 326 20 164 q 136 643 20 524 q 449 762 253 762 q 726 682 626 762 q 829 460 826 602 l 555 460 q 527 536 553 509 q 452 563 500 563 q 346 498 384 563 q 308 320 308 434 q 335 211 308 248 q 418 175 363 175 q 496 205 464 175 q 538 286 529 235 m 183 -297 l 217 -207 q 301 -233 261 -224 q 377 -243 341 -243 q 425 -229 407 -243 q 443 -192 443 -215 q 418 -156 443 -167 q 335 -146 394 -146 l 307 -146 l 358 0 l 435 0 l 413 -63 q 532 -93 493 -64 q 572 -180 572 -123 q 522 -297 572 -256 q 383 -338 473 -338 q 297 -327 347 -338 q 183 -297 248 -317 "},"È":{"x_min":22,"x_max":947,"ha":939,"o":"m 22 0 l 174 999 l 947 999 l 910 761 l 449 761 l 427 624 l 837 624 l 801 402 l 392 402 l 371 241 l 862 241 l 827 0 l 22 0 m 399 1337 l 583 1337 l 695 1086 l 599 1086 l 399 1337 "},"X":{"x_min":-64,"x_max":1015,"ha":971,"o":"m -64 0 l 308 523 l 62 999 l 391 999 l 484 774 q 493 740 490 759 q 496 699 496 722 q 501 737 496 720 q 516 772 506 755 l 655 999 l 1015 999 l 659 514 l 947 0 l 601 0 l 486 246 q 476 279 480 260 q 473 322 473 298 q 465 280 470 298 q 454 250 461 262 l 305 0 l -64 0 "},"ô":{"x_min":20,"x_max":856,"ha":913,"o":"m 456 566 q 349 501 387 566 q 312 321 312 437 q 338 213 312 248 q 421 178 365 178 q 525 242 486 178 q 564 415 564 306 q 537 528 564 490 q 456 566 510 566 m 20 331 q 140 647 20 529 q 462 765 260 765 q 750 669 644 765 q 856 409 856 573 q 739 89 856 205 q 416 -26 622 -26 q 126 70 233 -26 q 20 331 20 167 m 696 825 l 601 825 l 515 959 l 365 825 l 263 825 l 439 1076 l 611 1076 l 696 825 "},"đ":{"x_min":26,"x_max":1014.546875,"ha":943,"o":"m 448 541 q 345 480 386 541 q 305 328 305 419 q 333 226 305 263 q 412 190 361 190 q 519 249 477 190 q 560 403 560 308 q 530 505 560 469 q 448 541 501 541 m 532 0 l 542 96 q 440 8 499 39 q 310 -22 380 -22 q 103 72 180 -22 q 26 325 26 166 q 122 630 26 511 q 368 749 219 749 q 494 723 441 749 q 587 643 547 697 l 608 799 l 402 799 l 421 933 l 628 933 l 636 999 l 923 999 l 914 933 l 1014 933 l 994 799 l 895 799 l 782 0 l 532 0 "},"}":{"x_min":82,"x_max":598,"ha":694,"o":"m 435 786 l 435 612 q 466 491 435 526 q 574 456 498 456 q 585 457 577 456 q 598 458 593 458 l 598 265 q 585 265 593 265 q 574 266 577 266 q 466 231 498 266 q 435 109 435 195 l 435 -64 q 418 -191 435 -153 q 359 -250 401 -229 q 281 -273 329 -266 q 145 -280 234 -280 l 82 -280 l 82 -87 q 97 -87 88 -87 q 111 -88 107 -88 q 190 -68 170 -88 q 211 18 211 -47 l 211 181 q 242 308 211 271 q 358 361 274 345 q 242 413 274 376 q 211 541 211 450 l 211 703 q 190 790 211 769 q 111 810 170 810 q 97 809 107 810 q 82 809 88 809 l 82 1002 l 136 1002 q 278 994 229 1002 q 359 971 327 987 q 418 912 401 950 q 435 786 435 874 "},"â":{"x_min":-3,"x_max":820,"ha":900,"o":"m 516 329 q 401 299 471 314 q 286 212 286 273 q 306 167 286 184 q 360 151 326 151 q 471 197 430 151 q 516 329 512 244 m 503 0 l 494 69 q 370 0 433 22 q 238 -24 307 -24 q 62 32 128 -24 q -3 181 -3 88 q 79 370 -3 308 q 360 454 161 433 q 401 457 375 455 q 543 525 543 470 q 518 571 543 554 q 450 588 493 588 q 377 569 402 588 q 349 513 353 551 l 74 513 q 189 700 91 638 q 471 762 288 762 q 730 702 641 762 q 820 530 820 643 q 817 482 820 511 q 809 420 814 453 l 767 154 q 762 116 763 130 q 760 92 760 101 q 766 52 760 69 q 785 19 772 34 l 785 0 l 503 0 m 703 825 l 608 825 l 522 959 l 372 825 l 270 825 l 446 1076 l 618 1076 l 703 825 "},"ø":{"x_min":20,"x_max":856,"ha":913,"o":"m 567 483 l 351 189 q 381 175 365 179 q 419 171 398 171 q 533 237 492 171 q 575 422 575 304 q 573 447 575 432 q 567 483 571 462 m 306 266 l 520 555 q 489 566 507 562 q 453 570 472 570 q 342 506 384 570 q 300 342 300 443 q 301 312 300 328 q 306 266 302 295 m 62 -38 l 136 61 q 48 185 77 116 q 20 340 20 254 q 142 649 20 534 q 474 765 265 765 q 560 757 520 765 q 636 735 600 750 l 710 836 l 797 768 l 733 682 q 825 564 795 632 q 856 407 856 497 q 737 89 856 204 q 412 -26 619 -26 q 315 -18 361 -26 q 232 4 270 -11 l 150 -106 l 62 -38 "},"Ä":{"x_min":-79,"x_max":929,"ha":981,"o":"m -79 0 l 409 999 l 728 999 l 929 0 l 627 0 l 612 119 l 294 119 l 244 0 l -79 0 m 373 320 l 579 320 l 526 690 l 373 320 m 631 1120 l 657 1311 l 827 1311 l 800 1120 l 631 1120 m 385 1120 l 409 1311 l 581 1311 l 554 1120 l 385 1120 "},"‰":{"x_min":32,"x_max":2053,"ha":2085,"o":"m 1636 272 q 1669 190 1636 223 q 1751 158 1702 158 q 1833 191 1799 158 q 1867 272 1867 225 q 1833 355 1867 321 q 1751 389 1799 389 q 1669 355 1703 389 q 1636 272 1636 321 m 1450 273 q 1537 487 1450 400 q 1751 575 1624 575 q 1964 486 1875 575 q 2053 273 2053 397 q 1964 60 2053 149 q 1751 -28 1875 -28 q 1537 59 1624 -28 q 1450 273 1450 146 m 965 272 q 998 190 965 223 q 1079 158 1031 158 q 1162 191 1128 158 q 1196 272 1196 225 q 1162 355 1196 321 q 1079 389 1128 389 q 998 355 1031 389 q 965 272 965 321 m 779 273 q 865 487 779 400 q 1079 575 952 575 q 1292 486 1203 575 q 1382 273 1382 397 q 1292 60 1382 149 q 1079 -28 1203 -28 q 865 59 952 -28 q 779 273 779 146 m 360 -28 l 915 1002 l 1053 1002 l 498 -28 l 360 -28 m 218 699 q 251 618 218 651 q 334 585 285 585 q 415 618 382 585 q 449 699 449 651 q 415 782 449 748 q 334 816 382 816 q 251 782 285 816 q 218 699 218 748 m 32 700 q 119 914 32 827 q 333 1002 206 1002 q 546 913 457 1002 q 635 700 635 824 q 546 487 635 576 q 333 399 457 399 q 119 486 206 399 q 32 700 32 573 "},"N":{"x_min":22,"x_max":1102,"ha":1124,"o":"m 22 0 l 171 999 l 463 999 l 695 488 q 713 432 707 461 q 721 370 720 402 q 723 435 721 405 q 728 489 725 465 l 805 999 l 1102 999 l 949 0 l 655 0 l 419 518 q 407 562 413 533 q 398 627 401 591 l 398 600 q 396 553 398 575 q 392 514 395 532 l 317 0 l 22 0 "},"—":{"x_min":-33,"x_max":1389,"ha":1389,"o":"m 1389 468 l 1359 269 l -33 269 l -4 468 l 1389 468 "},"2":{"x_min":20,"x_max":858,"ha":913,"o":"m 20 0 l 20 8 q 38 147 20 87 q 95 251 57 207 q 187 337 132 292 q 315 434 242 383 q 381 479 338 450 q 575 690 575 611 q 545 760 575 734 q 464 787 515 787 q 366 744 399 787 q 330 615 332 701 l 74 615 q 189 901 80 799 q 486 1004 298 1004 q 758 925 658 1004 q 858 713 858 847 q 824 571 858 632 q 707 445 790 509 q 562 353 675 420 q 376 237 449 287 l 832 237 l 797 0 l 20 0 "},"ü":{"x_min":41,"x_max":890,"ha":930,"o":"m 524 0 l 533 100 q 422 9 485 40 q 287 -22 359 -22 q 106 44 171 -22 q 41 229 41 111 q 42 262 41 245 q 45 295 43 278 l 109 737 l 394 737 l 337 343 q 334 318 335 331 q 333 292 333 305 q 356 228 333 251 q 424 205 380 205 q 506 236 476 205 q 546 336 535 267 l 606 737 l 890 737 l 782 0 l 524 0 m 567 859 l 593 1050 l 763 1050 l 736 859 l 567 859 m 321 859 l 345 1050 l 517 1050 l 490 859 l 321 859 "},"":{"x_min":5.40625,"x_max":934,"ha":943,"o":"m 25 0 l 108 574 l 5 574 l 29 737 l 130 737 q 217 967 150 903 q 439 1031 284 1031 q 506 1027 473 1031 q 571 1019 540 1024 l 545 846 q 528 848 538 847 q 502 849 519 849 q 434 824 455 849 q 407 737 413 799 l 528 737 l 504 574 l 382 574 l 299 0 l 25 0 m 515 0 l 658 999 l 934 999 l 792 0 l 515 0 "},"Ó":{"x_min":50,"x_max":1089,"ha":1140,"o":"m 599 779 q 431 683 496 779 q 367 434 367 588 q 411 277 367 331 q 539 224 455 224 q 707 322 643 224 q 772 585 772 421 q 725 727 772 676 q 599 779 679 779 m 50 440 q 87 670 50 565 q 198 855 125 776 q 379 982 276 939 q 605 1026 482 1026 q 960 900 831 1026 q 1089 556 1089 775 q 1052 330 1089 434 q 947 151 1016 227 q 762 18 867 63 q 532 -26 658 -26 q 179 99 309 -26 q 50 440 50 225 m 514 1086 l 670 1337 l 882 1337 l 616 1086 l 514 1086 "},"˜":{"x_min":184,"x_max":637,"ha":694,"o":"m 637 1054 q 575 920 613 962 q 478 878 537 878 q 453 880 466 878 q 418 890 439 883 l 376 904 q 353 909 364 907 q 333 911 343 911 q 289 894 306 911 q 265 847 272 878 l 184 847 q 245 980 205 936 q 344 1025 285 1025 q 373 1022 356 1025 q 406 1014 389 1019 l 449 999 q 469 994 459 996 q 485 992 478 992 q 529 1006 512 992 q 556 1054 545 1021 l 637 1054 "},"ˇ":{"x_min":212,"x_max":647,"ha":694,"o":"m 212 1076 l 308 1076 l 394 939 l 544 1076 l 647 1076 l 470 825 l 298 825 l 212 1076 "},"Ÿ":{"x_min":-4,"x_max":1014,"ha":922,"o":"m 229 0 l 280 365 l -4 999 l 337 999 l 445 682 q 453 645 451 664 q 455 605 455 626 l 455 592 q 464 643 459 623 q 476 676 469 663 l 649 999 l 1014 999 l 600 364 l 547 0 l 229 0 m 607 1120 l 633 1311 l 803 1311 l 776 1120 l 607 1120 m 361 1120 l 385 1311 l 557 1311 l 530 1120 l 361 1120 "},"€":{"x_min":-34,"x_max":926,"ha":913,"o":"m 652 537 l 381 537 q 375 484 378 520 q 373 459 374 467 l 616 459 l 580 378 l 372 378 l 372 372 q 401 243 372 290 q 483 197 430 197 q 566 226 534 197 q 616 316 599 255 l 898 316 q 748 64 860 154 q 475 -25 636 -25 q 203 81 306 -25 q 88 378 100 188 l -34 378 l 5 459 l 87 459 q 89 492 87 474 q 93 537 91 510 l -4 537 l 31 616 l 110 616 q 150 727 125 674 q 211 831 175 781 q 360 959 273 915 q 550 1004 446 1004 q 814 917 718 1004 q 926 666 910 831 l 658 666 q 625 756 651 724 q 556 788 599 788 q 458 746 498 788 q 395 616 419 704 l 689 616 l 652 537 "},"ß":{"x_min":10,"x_max":873,"ha":930,"o":"m 10 0 l 109 659 q 231 944 138 857 q 505 1031 324 1031 q 776 960 680 1031 q 873 762 873 890 q 833 623 873 679 q 716 539 793 566 q 821 457 785 514 q 857 312 857 399 q 767 64 857 156 q 524 -28 677 -28 q 454 -22 491 -28 q 374 -6 417 -17 l 400 180 q 439 173 422 175 q 468 171 455 171 q 547 216 519 171 q 576 345 576 262 q 545 446 576 416 q 443 478 514 476 l 467 631 q 491 629 481 630 q 508 628 502 628 q 572 659 551 628 q 594 753 594 690 q 570 822 594 801 q 492 844 546 844 q 432 813 455 844 q 400 723 409 783 l 296 0 l 10 0 "},"s":{"x_min":8,"x_max":769,"ha":831,"o":"m 8 248 l 280 248 q 306 170 280 197 q 378 143 331 143 q 442 160 417 143 q 467 205 467 178 q 446 247 467 229 q 378 280 426 264 l 368 284 q 68 530 68 392 q 158 702 68 643 q 421 762 249 762 q 673 702 584 762 q 769 529 762 642 l 510 529 l 510 534 q 485 588 510 568 q 416 608 460 608 q 360 593 380 608 q 340 554 340 579 q 362 513 340 529 q 451 475 385 496 q 506 458 470 469 q 647 404 603 429 q 721 334 694 378 q 749 240 749 289 q 654 45 749 114 q 384 -24 559 -24 q 107 46 206 -24 q 8 242 8 116 l 8 248 "},"?":{"x_min":82,"x_max":840,"ha":871,"o":"m 286 374 q 321 525 288 466 q 427 628 353 583 q 460 647 439 635 q 559 755 559 705 q 535 813 559 792 q 473 835 512 835 q 391 804 419 835 q 362 714 363 773 l 82 714 q 190 951 86 863 q 470 1039 295 1039 q 740 965 641 1039 q 840 766 840 891 q 803 628 840 683 q 645 504 766 573 q 557 440 577 466 q 538 376 538 413 l 538 374 l 286 374 m 210 0 l 255 296 l 549 296 l 502 0 l 210 0 "},"c":{"x_min":20,"x_max":829,"ha":886,"o":"m 538 286 l 817 286 q 683 54 787 134 q 414 -25 579 -25 q 125 69 231 -25 q 20 326 20 164 q 136 643 20 524 q 449 762 253 762 q 726 682 626 762 q 829 460 826 602 l 555 460 q 527 536 553 509 q 452 563 500 563 q 346 498 384 563 q 308 320 308 434 q 335 211 308 248 q 418 175 363 175 q 496 205 464 175 q 538 286 529 235 "},"¶":{"x_min":7,"x_max":689,"ha":694,"o":"m 689 907 l 620 907 l 620 0 l 482 0 l 482 907 l 387 907 l 387 0 l 249 0 l 249 532 q 73 601 139 537 q 7 766 7 666 q 78 937 7 872 q 269 1003 150 1003 l 689 1003 l 689 907 "},"•":{"x_min":208,"x_max":609,"ha":819,"o":"m 208 516 q 266 657 208 599 q 409 716 325 716 q 550 657 491 716 q 609 516 609 598 q 549 374 609 433 q 407 315 490 315 q 266 373 324 315 q 208 516 208 432 "},"(":{"x_min":77,"x_max":603,"ha":572,"o":"m 187 -286 q 104 -40 131 -168 q 77 228 77 87 q 143 610 77 424 q 352 997 209 795 l 603 997 q 406 590 473 803 q 339 161 339 377 q 356 -69 339 42 q 410 -286 374 -180 l 187 -286 "},"◊":{"x_min":4,"x_max":682,"ha":686,"o":"m 343 955 l 81 398 l 343 -158 l 604 398 l 343 955 m 343 1121 l 682 398 l 343 -324 l 4 398 l 343 1121 "},"­":{"x_min":36,"x_max":423,"ha":486,"o":"m 36 241 l 74 501 l 423 501 l 383 241 l 36 241 "},":":{"x_min":32,"x_max":436,"ha":489,"o":"m 97 441 l 143 737 l 436 737 l 389 441 l 97 441 m 32 0 l 78 296 l 370 296 l 324 0 l 32 0 "},"Û":{"x_min":77,"x_max":1103,"ha":1124,"o":"m 169 999 l 486 999 l 396 407 q 393 384 394 395 q 392 360 392 372 q 426 257 392 293 q 524 222 460 222 q 644 260 606 222 q 697 402 681 298 l 788 999 l 1103 999 l 1011 389 q 863 70 978 168 q 526 -28 749 -28 q 191 70 306 -28 q 77 356 77 169 q 79 404 77 378 q 86 466 81 430 l 169 999 m 865 1086 l 770 1086 l 684 1220 l 534 1086 l 432 1086 l 608 1337 l 780 1337 l 865 1086 "},"V":{"x_min":46,"x_max":1006,"ha":920,"o":"m 230 0 l 46 999 l 352 999 l 417 418 q 421 382 419 400 q 422 347 422 364 q 421 327 422 339 q 419 295 421 316 q 433 363 426 336 q 445 408 439 391 l 674 999 l 1006 999 l 547 0 l 230 0 "}," ":{"x_min":0,"x_max":0,"ha":913},"@":{"x_min":47,"x_max":1341,"ha":1389,"o":"m 841 617 l 874 673 l 1038 673 l 932 248 q 930 235 931 240 q 929 227 929 231 q 938 203 929 211 q 961 194 946 194 q 1118 290 1048 194 q 1188 515 1188 387 q 1069 773 1188 675 q 756 872 951 872 q 575 847 659 872 q 423 776 491 823 q 261 593 318 703 q 205 356 205 484 q 340 38 205 156 q 703 -80 475 -80 q 911 -48 811 -80 q 1100 47 1011 -16 l 1178 -61 q 946 -184 1067 -144 q 688 -224 825 -224 q 447 -187 560 -224 q 248 -80 334 -150 q 97 108 147 0 q 47 352 47 216 q 84 577 47 471 q 195 770 122 684 q 440 954 296 890 q 753 1019 584 1019 q 1178 879 1015 1019 q 1341 517 1341 739 q 1294 304 1341 401 q 1161 140 1248 207 q 1057 83 1114 102 q 939 63 1001 63 q 826 89 865 63 q 781 167 787 115 q 694 89 741 113 q 585 65 648 65 q 410 124 469 65 q 352 302 352 184 q 449 581 352 469 q 691 693 546 693 q 779 673 741 693 q 841 617 818 654 m 763 334 l 795 466 q 766 537 790 512 q 704 563 742 563 q 591 484 640 563 q 543 298 543 405 q 563 222 543 249 q 622 196 584 196 q 709 233 671 196 q 763 334 748 271 "},"¾":{"x_min":22,"x_max":1355,"ha":1382,"o":"m 1081 0 l 1102 122 l 817 122 l 839 265 l 1156 546 l 1340 546 l 1290 241 l 1355 241 l 1333 122 l 1269 122 l 1250 0 l 1081 0 m 969 241 l 1127 241 l 1155 410 l 969 241 m 343 -27 l 900 1002 l 1037 1002 l 480 -27 l 343 -27 m 22 617 l 191 617 q 215 557 192 579 q 276 536 237 536 q 335 553 313 536 q 357 601 357 571 q 331 650 357 635 q 246 667 306 665 l 264 760 l 275 760 q 357 775 328 760 q 386 818 386 790 q 367 856 386 842 q 315 871 348 871 q 260 857 280 871 q 235 815 240 843 l 74 815 q 149 944 84 898 q 321 990 214 990 q 490 949 429 990 q 551 836 551 908 q 528 759 551 792 q 462 707 505 727 q 515 663 498 690 q 533 596 533 636 q 465 463 533 511 q 279 416 398 416 q 89 467 156 416 q 22 611 22 518 l 22 617 "},"i":{"x_min":5,"x_max":434,"ha":440,"o":"m 119 819 l 149 1023 l 434 1023 l 406 819 l 119 819 m 5 0 l 112 737 l 397 737 l 289 0 l 5 0 "},"≤":{"x_min":172,"x_max":986,"ha":1157,"o":"m 986 160 l 986 -24 l 172 -24 l 172 160 l 986 160 m 984 677 l 507 536 l 984 394 l 984 204 l 172 455 l 172 616 l 984 869 l 984 677 "},"m":{"x_min":5,"x_max":1275,"ha":1352,"o":"m 5 0 l 114 737 l 372 737 l 356 641 q 466 731 407 702 q 594 761 524 761 q 718 727 670 761 q 785 626 766 693 q 904 727 840 693 q 1040 761 967 761 q 1211 699 1148 761 q 1275 531 1275 638 q 1272 491 1275 516 q 1266 434 1270 466 l 1207 0 l 928 0 l 985 410 q 988 436 987 423 q 990 463 990 448 q 971 515 990 497 q 915 533 952 533 q 841 502 867 533 q 804 398 814 471 l 744 0 l 467 0 l 524 413 q 527 438 526 426 q 528 461 528 450 q 508 515 528 497 q 448 533 488 533 q 378 503 403 533 q 342 404 353 473 l 281 0 l 5 0 "},"ž":{"x_min":-7,"x_max":757,"ha":804,"o":"m 757 737 l 729 543 l 355 204 l 729 204 l 698 0 l -7 0 l 20 193 l 402 539 l 58 539 l 85 737 l 757 737 m 268 1076 l 364 1076 l 450 939 l 600 1076 l 703 1076 l 526 825 l 354 825 l 268 1076 "},"á":{"x_min":-3,"x_max":820,"ha":900,"o":"m 516 329 q 401 299 471 314 q 286 212 286 273 q 306 167 286 184 q 360 151 326 151 q 471 197 430 151 q 516 329 512 244 m 503 0 l 494 69 q 370 0 433 22 q 238 -24 307 -24 q 62 32 128 -24 q -3 181 -3 88 q 79 370 -3 308 q 360 454 161 433 q 401 457 375 455 q 543 525 543 470 q 518 571 543 554 q 450 588 493 588 q 377 569 402 588 q 349 513 353 551 l 74 513 q 189 700 91 638 q 471 762 288 762 q 730 702 641 762 q 820 530 820 643 q 817 482 820 511 q 809 420 814 453 l 767 154 q 762 116 763 130 q 760 92 760 101 q 766 52 760 69 q 785 19 772 34 l 785 0 l 503 0 m 366 825 l 522 1076 l 734 1076 l 468 825 l 366 825 "},"×":{"x_min":172,"x_max":1014,"ha":1157,"o":"m 592 546 l 881 835 l 1014 702 l 724 413 l 1014 124 l 881 -7 l 592 282 l 304 -7 l 172 124 l 461 413 l 172 702 l 304 835 l 592 546 "},"İ":{"x_min":24,"x_max":496,"ha":519,"o":"m 24 0 l 175 999 l 496 999 l 344 0 l 24 0 m 278 1117 l 304 1308 l 483 1308 l 455 1117 l 278 1117 "},"K":{"x_min":22,"x_max":1133,"ha":1025,"o":"m 22 0 l 174 999 l 487 999 l 437 672 l 757 999 l 1133 999 l 706 588 l 1004 0 l 659 0 l 480 375 l 374 273 l 334 0 l 22 0 "},"7":{"x_min":107,"x_max":886,"ha":913,"o":"m 172 0 q 284 385 188 198 q 555 745 380 572 l 107 745 l 141 974 l 886 974 l 854 771 q 602 412 691 602 q 492 0 513 221 l 172 0 "},"¨":{"x_min":190,"x_max":632,"ha":694,"o":"m 436 859 l 462 1050 l 632 1050 l 605 859 l 436 859 m 190 859 l 214 1050 l 386 1050 l 359 859 l 190 859 "},"Y":{"x_min":-4,"x_max":1014,"ha":922,"o":"m 229 0 l 280 365 l -4 999 l 337 999 l 445 682 q 453 645 451 664 q 455 605 455 626 l 455 592 q 464 643 459 623 q 476 676 469 663 l 649 999 l 1014 999 l 600 364 l 547 0 l 229 0 "},"E":{"x_min":22,"x_max":947,"ha":939,"o":"m 22 0 l 174 999 l 947 999 l 910 761 l 449 761 l 427 624 l 837 624 l 801 402 l 392 402 l 371 241 l 862 241 l 827 0 l 22 0 "},"Ô":{"x_min":50,"x_max":1089,"ha":1140,"o":"m 599 779 q 431 683 496 779 q 367 434 367 588 q 411 277 367 331 q 539 224 455 224 q 707 322 643 224 q 772 585 772 421 q 725 727 772 676 q 599 779 679 779 m 50 440 q 87 670 50 565 q 198 855 125 776 q 379 982 276 939 q 605 1026 482 1026 q 960 900 831 1026 q 1089 556 1089 775 q 1052 330 1089 434 q 947 151 1016 227 q 762 18 867 63 q 532 -26 658 -26 q 179 99 309 -26 q 50 440 50 225 m 851 1086 l 756 1086 l 670 1220 l 520 1086 l 418 1086 l 594 1337 l 766 1337 l 851 1086 "},"Ï":{"x_min":24,"x_max":601,"ha":519,"o":"m 24 0 l 175 999 l 496 999 l 344 0 l 24 0 m 405 1120 l 431 1311 l 601 1311 l 574 1120 l 405 1120 m 159 1120 l 183 1311 l 355 1311 l 328 1120 l 159 1120 "},"‹":{"x_min":16,"x_max":329,"ha":359,"o":"m 248 97 l 16 265 l 46 472 l 329 639 l 301 449 l 148 358 l 273 269 l 248 97 "},"±":{"x_min":173,"x_max":985,"ha":1157,"o":"m 985 156 l 985 -28 l 173 -28 l 173 156 l 985 156 m 674 855 l 674 645 l 985 645 l 985 461 l 674 461 l 674 251 l 484 251 l 484 461 l 173 461 l 173 645 l 484 645 l 484 855 l 674 855 "},"ì":{"x_min":5,"x_max":397,"ha":440,"o":"m 5 0 l 112 737 l 397 737 l 289 0 l 5 0 m 83 1076 l 267 1076 l 379 825 l 283 825 l 83 1076 "},"|":{"x_min":253,"x_max":444,"ha":694,"o":"m 444 1061 l 444 -328 l 253 -328 l 253 1061 l 444 1061 "},"§":{"x_min":5,"x_max":675,"ha":694,"o":"m 397 323 q 451 349 433 332 q 469 391 469 366 q 453 425 469 408 q 388 475 438 442 l 271 555 q 219 523 236 541 q 203 483 203 506 q 214 450 203 467 q 248 418 226 433 l 397 323 m 5 110 l 209 110 l 209 104 q 229 26 209 51 q 296 2 250 2 q 351 16 332 2 q 370 59 370 31 q 270 164 370 104 l 264 168 l 163 230 q 47 333 85 276 q 10 463 10 391 q 47 576 10 528 q 161 656 85 624 q 127 720 138 688 q 116 785 116 751 q 190 948 116 886 q 391 1011 265 1011 q 599 947 523 1011 q 675 771 675 883 l 675 755 l 474 755 q 450 830 471 806 q 387 854 430 854 q 340 837 358 854 q 323 795 323 821 q 339 754 323 773 q 394 709 355 734 l 535 623 q 630 532 596 584 q 664 422 664 480 q 625 296 664 349 q 512 216 586 243 q 562 148 546 184 q 578 67 578 111 q 502 -97 578 -38 q 288 -157 426 -157 q 76 -90 147 -157 q 5 105 5 -24 l 5 110 "},"q":{"x_min":25,"x_max":897,"ha":940,"o":"m 455 543 q 351 483 391 543 q 311 328 311 424 q 338 224 311 260 q 420 189 366 189 q 524 248 485 189 q 563 409 563 308 q 534 507 563 471 q 455 543 505 543 m 459 -286 l 511 59 q 420 -5 471 16 q 309 -28 370 -28 q 100 63 176 -28 q 25 317 25 155 q 123 639 25 513 q 373 766 222 766 q 514 734 451 766 q 622 640 576 702 l 638 737 l 897 737 l 745 -286 l 459 -286 "},"b":{"x_min":10,"x_max":867,"ha":937,"o":"m 485 546 q 383 487 422 546 q 343 337 343 429 q 372 235 343 272 q 453 198 401 198 q 554 257 514 198 q 595 409 595 316 q 566 511 595 476 q 485 546 538 546 m 10 0 l 155 999 l 439 999 l 384 669 q 472 738 423 715 q 583 761 521 761 q 790 673 714 761 q 867 433 867 585 q 770 101 867 227 q 517 -24 673 -24 q 371 8 433 -24 q 278 102 310 41 l 262 0 l 10 0 "},"®":{"x_min":69,"x_max":1088,"ha":1157,"o":"m 558 682 l 532 682 l 532 551 l 568 551 q 627 567 607 551 q 648 617 648 584 q 626 666 648 650 q 558 682 604 682 m 584 790 q 764 748 702 790 q 826 627 826 707 q 796 536 826 574 q 715 479 767 497 l 835 239 l 646 239 l 548 450 l 532 450 l 532 239 l 358 239 l 358 790 l 584 790 m 984 502 q 953 657 984 583 q 866 788 922 731 q 734 877 807 847 q 578 908 661 908 q 422 878 495 908 q 293 791 349 849 q 204 657 235 732 q 173 502 173 583 q 203 348 173 421 q 292 217 234 274 q 423 127 350 158 q 578 97 497 97 q 733 128 659 97 q 867 218 807 159 q 954 346 925 274 q 984 502 984 419 m 577 1012 q 775 974 682 1012 q 940 863 868 936 q 1049 698 1011 792 q 1088 502 1088 605 q 1050 306 1088 397 q 940 145 1012 215 q 771 32 865 72 q 577 -7 677 -7 q 384 31 476 -7 q 219 144 293 70 q 107 308 146 216 q 69 502 69 401 q 107 698 69 604 q 220 866 146 791 q 382 974 290 937 q 577 1012 473 1012 "},"L":{"x_min":22,"x_max":833,"ha":848,"o":"m 22 0 l 174 999 l 494 999 l 380 260 l 833 260 l 795 0 l 22 0 "}," ":{"x_min":0,"x_max":0,"ha":457},"∑":{"x_min":40,"x_max":1040,"ha":1074,"o":"m 54 999 l 981 999 l 981 760 l 454 760 l 833 382 l 466 -25 l 1040 -25 l 1040 -266 l 40 -266 l 40 -130 l 490 369 l 54 796 l 54 999 "},"À":{"x_min":-79,"x_max":929,"ha":981,"o":"m -79 0 l 409 999 l 728 999 l 929 0 l 627 0 l 612 119 l 294 119 l 244 0 l -79 0 m 373 320 l 579 320 l 526 690 l 373 320 m 395 1337 l 579 1337 l 691 1086 l 595 1086 l 395 1337 "},"+":{"x_min":173,"x_max":985,"ha":1157,"o":"m 674 828 l 674 507 l 985 507 l 985 322 l 674 322 l 674 0 l 484 0 l 484 322 l 173 322 l 173 507 l 484 507 l 484 828 l 674 828 "},"½":{"x_min":98,"x_max":1347,"ha":1382,"o":"m 819 0 l 819 4 q 830 82 819 48 q 866 140 842 116 q 922 187 888 162 q 1005 242 956 212 q 1046 268 1020 252 q 1167 385 1167 342 q 1148 426 1167 411 q 1098 441 1130 441 q 1037 416 1058 441 q 1015 344 1016 392 l 852 344 q 925 504 857 447 q 1113 562 994 562 q 1284 518 1221 562 q 1347 400 1347 474 q 1325 320 1347 354 q 1252 250 1304 285 q 1160 198 1231 235 q 1043 134 1089 161 l 1330 134 l 1307 0 l 819 0 m 343 -27 l 899 1002 l 1037 1002 l 480 -27 l 343 -27 m 194 431 l 247 769 q 180 758 216 762 q 98 755 143 755 l 118 865 q 243 897 194 871 q 324 977 292 924 l 464 977 l 372 431 l 194 431 "},"Ë":{"x_min":22,"x_max":947,"ha":939,"o":"m 22 0 l 174 999 l 947 999 l 910 761 l 449 761 l 427 624 l 837 624 l 801 402 l 392 402 l 371 241 l 862 241 l 827 0 l 22 0 m 635 1120 l 661 1311 l 831 1311 l 804 1120 l 635 1120 m 389 1120 l 413 1311 l 585 1311 l 558 1120 l 389 1120 "},"'":{"x_min":46,"x_max":221,"ha":267,"o":"m 221 977 l 221 595 l 46 595 l 46 977 l 221 977 "},"Š":{"x_min":14,"x_max":930,"ha":983,"o":"m 14 318 l 324 318 l 324 315 q 362 231 324 260 q 473 202 400 202 q 554 222 526 202 q 582 282 582 243 q 456 384 582 331 q 409 404 426 397 q 170 551 233 482 q 108 722 108 620 q 213 945 108 865 q 508 1025 318 1025 q 807 940 697 1025 q 930 701 918 855 l 632 701 q 593 777 625 752 q 502 802 561 802 q 437 782 462 802 q 412 733 412 762 q 562 627 412 689 q 658 586 622 602 q 836 462 779 533 q 893 294 893 391 q 780 58 893 142 q 463 -26 667 -26 q 132 64 250 -26 q 14 318 14 155 m 413 1337 l 509 1337 l 595 1200 l 745 1337 l 848 1337 l 671 1086 l 499 1086 l 413 1337 "},"˛":{"x_min":122,"x_max":382,"ha":694,"o":"m 327 0 q 265 -70 284 -39 q 247 -133 247 -102 q 259 -174 247 -161 q 298 -187 271 -187 l 382 -187 l 355 -317 l 317 -317 q 166 -285 211 -317 q 122 -183 122 -254 q 153 -87 122 -132 q 253 0 185 -43 l 327 0 "},"ð":{"x_min":20,"x_max":858,"ha":913,"o":"m 450 536 q 346 479 382 536 q 310 314 310 422 q 337 210 310 245 q 423 176 365 176 q 524 232 486 176 q 562 385 562 289 q 534 499 562 462 q 450 536 507 536 m 581 673 q 536 755 562 718 q 475 823 509 792 l 263 735 l 226 820 l 390 889 q 346 907 369 899 q 298 923 322 916 l 358 1031 q 463 997 413 1016 q 560 952 512 978 l 757 1033 l 801 947 l 662 887 q 808 689 759 804 q 858 431 858 574 q 744 92 858 212 q 423 -28 630 -28 q 129 66 239 -28 q 20 315 20 160 q 132 604 20 494 q 430 714 245 714 q 507 703 469 714 q 581 673 545 693 "},"ş":{"x_min":8,"x_max":769,"ha":831,"o":"m 8 248 l 280 248 q 306 170 280 197 q 378 143 331 143 q 442 160 417 143 q 467 205 467 178 q 446 247 467 229 q 378 280 426 264 l 368 284 q 68 530 68 392 q 158 702 68 643 q 421 762 249 762 q 673 702 584 762 q 769 529 762 642 l 510 529 l 510 534 q 485 588 510 568 q 416 608 460 608 q 360 593 380 608 q 340 554 340 579 q 362 513 340 529 q 451 475 385 496 q 506 458 470 469 q 647 404 603 429 q 721 334 694 378 q 749 240 749 289 q 654 45 749 114 q 384 -24 559 -24 q 107 46 206 -24 q 8 242 8 116 l 8 248 m 145 -297 l 179 -207 q 263 -233 223 -224 q 339 -243 303 -243 q 387 -229 369 -243 q 405 -192 405 -215 q 380 -156 405 -167 q 297 -146 356 -146 l 269 -146 l 320 0 l 397 0 l 375 -63 q 494 -93 455 -64 q 534 -180 534 -123 q 484 -297 534 -256 q 345 -338 435 -338 q 259 -327 309 -338 q 145 -297 210 -317 "},"ı":{"x_min":5,"x_max":397,"ha":440,"o":"m 5 0 l 112 737 l 397 737 l 289 0 l 5 0 "},"Ć":{"x_min":52,"x_max":1052,"ha":1082,"o":"m 725 380 l 1032 380 q 867 79 998 187 q 539 -29 736 -29 q 182 99 312 -29 q 52 453 52 228 q 88 667 52 564 q 195 851 125 771 q 372 981 269 937 q 600 1026 475 1026 q 922 921 807 1026 q 1052 618 1037 817 l 754 618 q 711 738 751 695 q 599 781 671 781 q 431 685 495 781 q 367 434 367 590 q 408 274 367 328 q 529 221 449 221 q 649 262 598 221 q 725 380 699 303 m 490 1086 l 646 1337 l 858 1337 l 592 1086 l 490 1086 "},"ä":{"x_min":-3,"x_max":820,"ha":900,"o":"m 516 329 q 401 299 471 314 q 286 212 286 273 q 306 167 286 184 q 360 151 326 151 q 471 197 430 151 q 516 329 512 244 m 503 0 l 494 69 q 370 0 433 22 q 238 -24 307 -24 q 62 32 128 -24 q -3 181 -3 88 q 79 370 -3 308 q 360 454 161 433 q 401 457 375 455 q 543 525 543 470 q 518 571 543 554 q 450 588 493 588 q 377 569 402 588 q 349 513 353 551 l 74 513 q 189 700 91 638 q 471 762 288 762 q 730 702 641 762 q 820 530 820 643 q 817 482 820 511 q 809 420 814 453 l 767 154 q 762 116 763 130 q 760 92 760 101 q 766 52 760 69 q 785 19 772 34 l 785 0 l 503 0 m 545 859 l 571 1050 l 741 1050 l 714 859 l 545 859 m 299 859 l 323 1050 l 495 1050 l 468 859 l 299 859 "},"¹":{"x_min":103,"x_max":485,"ha":603,"o":"m 202 392 l 259 754 q 188 743 226 747 q 103 740 149 740 l 123 858 q 253 891 202 862 q 339 977 305 919 l 485 977 l 390 392 l 202 392 "},"£":{"x_min":40,"x_max":885,"ha":913,"o":"m 108 -13 l 40 229 q 137 316 107 272 q 167 412 167 360 q 164 439 167 420 q 164 443 164 441 l 48 443 l 65 558 l 147 558 q 137 639 140 606 q 134 697 134 671 q 233 918 134 833 q 497 1003 333 1003 q 786 919 687 1003 q 885 676 885 836 l 885 652 l 627 652 q 628 662 627 655 q 629 672 629 669 q 601 757 629 728 q 520 787 574 787 q 444 758 470 787 q 418 676 418 730 q 425 598 418 653 q 430 558 429 571 l 602 558 l 587 443 l 436 443 l 436 438 q 409 354 436 392 q 315 269 382 315 q 368 277 344 274 q 408 281 392 281 q 535 256 453 281 q 655 231 617 231 q 745 243 701 231 q 828 281 790 256 l 788 29 q 700 -11 745 2 q 613 -25 655 -25 q 453 14 549 -25 q 422 27 432 23 q 353 50 381 44 q 297 57 325 57 q 202 39 249 57 q 108 -13 156 22 "},"W":{"x_min":62,"x_max":1296,"ha":1223,"o":"m 120 0 l 62 999 l 349 999 l 349 474 q 347 419 349 447 q 341 364 345 392 q 354 427 347 400 q 366 470 360 453 l 551 999 l 800 999 l 806 480 q 805 429 806 458 q 801 368 804 400 q 812 423 806 397 q 825 470 818 448 l 995 999 l 1296 999 l 920 0 l 622 0 l 602 502 l 602 516 q 604 553 602 532 q 609 603 606 573 q 596 549 602 573 q 585 507 590 524 l 417 0 l 120 0 "},"Ğ":{"x_min":52,"x_max":1060,"ha":1104,"o":"m 766 0 l 759 75 q 637 -2 706 22 q 485 -28 569 -28 q 170 99 289 -28 q 52 437 52 226 q 86 665 52 561 q 189 846 121 770 q 367 979 267 936 q 596 1023 467 1023 q 921 927 801 1023 q 1060 654 1041 832 l 764 654 q 710 745 753 712 q 601 779 667 779 q 431 683 495 779 q 367 427 367 587 q 412 271 367 325 q 543 218 457 218 q 645 246 599 218 q 721 330 691 275 l 583 330 l 616 536 l 1051 536 l 969 0 l 766 0 m 479 1315 l 568 1315 l 568 1308 q 592 1242 568 1263 q 666 1221 616 1221 q 757 1244 720 1221 q 816 1315 794 1267 l 908 1315 q 814 1159 878 1211 q 655 1107 751 1107 q 521 1152 566 1107 q 477 1287 477 1197 q 478 1300 477 1291 q 479 1315 479 1310 "},"v":{"x_min":14,"x_max":824,"ha":787,"o":"m 147 0 l 14 737 l 286 737 l 340 273 l 538 737 l 824 737 l 467 0 l 147 0 "},">":{"x_min":179,"x_max":978,"ha":1157,"o":"m 978 509 l 978 319 l 179 -11 l 179 191 l 722 413 l 179 635 l 179 840 l 978 509 "},"û":{"x_min":41,"x_max":890,"ha":930,"o":"m 524 0 l 533 100 q 422 9 485 40 q 287 -22 359 -22 q 106 44 171 -22 q 41 229 41 111 q 42 262 41 245 q 45 295 43 278 l 109 737 l 394 737 l 337 343 q 334 318 335 331 q 333 292 333 305 q 356 228 333 251 q 424 205 380 205 q 506 236 476 205 q 546 336 535 267 l 606 737 l 890 737 l 782 0 l 524 0 m 725 825 l 630 825 l 544 959 l 394 825 l 292 825 l 468 1076 l 640 1076 l 725 825 "},"Ð":{"x_min":-8,"x_max":1038,"ha":1086,"o":"m 381 248 l 455 248 q 569 259 531 248 q 637 298 607 271 q 697 402 673 332 q 721 550 721 472 q 677 709 721 663 q 527 756 634 756 l 455 756 l 433 602 l 571 602 l 547 442 l 409 442 l 381 248 m 28 0 l 94 442 l -8 442 l 15 602 l 118 602 l 176 999 l 575 999 q 807 965 725 999 q 951 849 890 931 q 1015 718 993 795 q 1038 551 1038 641 q 897 141 1038 283 q 490 0 757 0 l 28 0 "},"r":{"x_min":10,"x_max":606,"ha":590,"o":"m 10 0 l 114 737 l 375 737 l 359 630 q 454 728 403 696 q 570 760 505 760 q 601 757 581 760 q 606 757 604 757 l 566 475 q 542 477 557 476 q 500 481 511 481 q 384 438 421 481 q 330 282 346 396 l 290 0 l 10 0 "},"Č":{"x_min":52,"x_max":1052,"ha":1082,"o":"m 725 380 l 1032 380 q 867 79 998 187 q 539 -29 736 -29 q 182 99 312 -29 q 52 453 52 228 q 88 667 52 564 q 195 851 125 771 q 372 981 269 937 q 600 1026 475 1026 q 922 921 807 1026 q 1052 618 1037 817 l 754 618 q 711 738 751 695 q 599 781 671 781 q 431 685 495 781 q 367 434 367 590 q 408 274 367 328 q 529 221 449 221 q 649 262 598 221 q 725 380 699 303 m 445 1337 l 541 1337 l 627 1200 l 777 1337 l 880 1337 l 703 1086 l 531 1086 l 445 1337 "},"x":{"x_min":-72,"x_max":803,"ha":775,"o":"m -72 0 l 196 387 l 13 737 l 309 737 l 372 547 l 478 737 l 803 737 l 537 393 l 741 0 l 440 0 l 359 223 l 242 0 l -72 0 "},"è":{"x_min":21,"x_max":851,"ha":920,"o":"m 322 452 l 576 452 q 544 551 574 516 q 458 586 513 586 q 367 550 403 586 q 322 452 331 515 m 545 215 l 821 215 q 682 36 786 99 q 422 -26 579 -26 q 128 67 236 -26 q 21 322 21 161 q 138 643 21 523 q 452 764 255 764 q 749 665 647 764 q 851 377 851 566 q 849 342 851 360 q 846 306 848 324 l 310 306 l 310 293 q 342 191 310 226 q 437 156 374 156 q 507 171 479 156 q 545 215 536 187 m 300 1076 l 484 1076 l 596 825 l 500 825 l 300 1076 "},"Ø":{"x_min":50,"x_max":1089,"ha":1140,"o":"m 167 109 q 79 251 108 168 q 50 439 50 334 q 87 668 50 561 q 198 854 125 774 q 379 981 275 938 q 606 1025 482 1025 q 751 1009 683 1025 q 877 961 819 993 l 965 1068 l 1055 995 l 966 891 q 1058 739 1028 826 q 1089 544 1089 653 q 1051 328 1089 431 q 945 147 1014 225 q 760 16 869 60 q 513 -28 652 -28 q 374 -11 438 -28 q 256 38 309 5 l 155 -80 l 68 -6 l 167 109 m 371 337 l 712 748 q 660 776 689 766 q 598 786 631 786 q 426 687 493 786 q 359 430 359 588 q 362 387 359 409 q 371 337 365 365 m 768 664 l 423 252 q 470 223 441 233 q 537 213 499 213 q 710 311 643 213 q 778 568 778 409 q 775 617 778 593 q 768 664 773 641 "},"÷":{"x_min":172,"x_max":983,"ha":1157,"o":"m 578 251 q 664 214 628 251 q 701 127 701 177 q 664 40 701 77 q 576 4 628 4 q 489 39 525 4 q 454 127 454 75 q 490 215 454 179 q 578 251 526 251 m 983 507 l 983 322 l 172 322 l 172 507 l 983 507 m 578 825 q 664 787 628 825 q 701 700 701 750 q 664 614 701 650 q 576 578 628 578 q 489 613 525 578 q 454 700 454 649 q 490 788 454 752 q 578 825 526 825 "},"h":{"x_min":10,"x_max":850,"ha":933,"o":"m 10 0 l 154 999 l 437 999 l 386 652 q 488 731 433 705 q 607 758 542 758 q 785 693 721 758 q 850 516 850 629 q 848 469 850 485 q 845 439 847 453 l 787 0 l 501 0 l 553 381 q 555 396 553 386 q 560 442 560 437 q 538 510 560 487 q 473 534 516 534 q 387 499 418 534 q 346 391 356 465 l 290 0 l 10 0 "},".":{"x_min":17,"x_max":355,"ha":457,"o":"m 17 0 l 61 296 l 355 296 l 309 0 l 17 0 "},"f":{"x_min":23.890625,"x_max":590,"ha":521,"o":"m 43 0 l 126 574 l 23 574 l 47 737 l 148 737 q 235 967 168 903 q 458 1031 303 1031 q 524 1027 491 1031 q 590 1019 558 1024 l 563 846 q 546 848 556 847 q 520 849 537 849 q 453 824 474 849 q 426 737 432 799 l 548 737 l 524 574 l 401 574 l 319 0 l 43 0 "},"“":{"x_min":87,"x_max":756,"ha":758,"o":"m 424 521 l 457 766 q 543 961 475 897 q 732 1025 612 1025 l 756 1025 l 739 907 q 731 907 736 907 q 720 908 727 908 q 644 877 672 908 q 605 783 617 847 l 721 783 l 684 521 l 424 521 m 87 521 l 122 766 q 209 961 141 897 q 397 1025 277 1025 l 421 1025 l 404 907 q 396 907 400 907 q 384 908 391 908 q 309 877 336 908 q 270 783 281 847 l 385 783 l 348 521 l 87 521 "},"A":{"x_min":-79,"x_max":929,"ha":981,"o":"m -79 0 l 409 999 l 728 999 l 929 0 l 627 0 l 612 119 l 294 119 l 244 0 l -79 0 m 373 320 l 579 320 l 526 690 l 373 320 "},"O":{"x_min":50,"x_max":1089,"ha":1140,"o":"m 599 779 q 431 683 496 779 q 367 434 367 588 q 411 277 367 331 q 539 224 455 224 q 707 322 643 224 q 772 585 772 421 q 725 727 772 676 q 599 779 679 779 m 50 440 q 87 670 50 565 q 198 855 125 776 q 379 982 276 939 q 605 1026 482 1026 q 960 900 831 1026 q 1089 556 1089 775 q 1052 330 1089 434 q 947 151 1016 227 q 762 18 867 63 q 532 -26 658 -26 q 179 99 309 -26 q 50 440 50 225 "},"π":{"x_min":28,"x_max":1154,"ha":1164,"o":"m 1126 574 l 1004 574 l 923 0 l 640 0 l 720 574 l 566 574 l 486 0 l 202 0 l 283 574 l 263 574 q 224 548 242 574 q 202 484 207 523 l 28 484 q 114 683 52 630 q 326 737 176 737 l 1154 737 l 1126 574 "},"‘":{"x_min":87,"x_max":421,"ha":425,"o":"m 87 521 l 122 766 q 209 961 141 897 q 397 1025 277 1025 l 421 1025 l 404 907 q 396 907 400 907 q 384 908 391 908 q 309 877 336 908 q 270 783 281 847 l 385 783 l 348 521 l 87 521 "},"3":{"x_min":36,"x_max":875,"ha":913,"o":"m 36 335 l 304 335 q 342 227 306 265 q 438 189 377 189 q 532 220 497 189 q 567 305 567 252 q 526 392 567 366 q 391 421 485 419 l 419 587 l 437 587 q 567 614 522 587 q 613 692 613 642 q 583 761 613 736 q 500 786 553 786 q 412 761 444 786 q 373 686 381 736 l 117 686 q 238 917 135 836 q 511 999 340 999 q 778 925 681 999 q 875 723 875 851 q 839 587 875 646 q 734 494 803 528 q 819 414 792 463 q 847 295 847 365 q 739 60 847 145 q 442 -25 632 -25 q 142 66 248 -25 q 36 324 36 158 l 36 335 "},"9":{"x_min":25,"x_max":869,"ha":913,"o":"m 461 792 q 361 751 398 792 q 325 641 325 711 q 358 555 325 586 q 450 524 391 524 q 549 564 513 524 q 586 674 586 604 q 552 760 586 729 q 461 792 519 792 m 25 242 l 290 265 q 326 198 298 221 q 400 176 354 176 q 512 231 469 176 q 562 387 555 286 q 470 343 519 358 q 365 329 421 329 q 139 413 225 329 q 54 631 54 497 q 160 901 54 803 q 455 1000 267 1000 q 760 890 652 1000 q 869 582 869 780 q 739 132 869 292 q 377 -28 610 -28 q 133 39 220 -28 q 25 242 46 106 "},"l":{"x_min":8,"x_max":428,"ha":437,"o":"m 8 0 l 144 999 l 428 999 l 292 0 l 8 0 "},"":{"x_min":5.40625,"x_max":939,"ha":946,"o":"m 25 0 l 108 574 l 5 574 l 29 737 l 130 737 q 217 967 150 903 q 440 1031 284 1031 q 507 1027 474 1031 q 572 1018 540 1024 l 545 846 q 528 848 538 847 q 502 849 519 849 q 434 824 455 849 q 407 737 413 799 l 528 737 l 504 574 l 382 574 l 299 0 l 25 0 m 630 818 l 661 1023 l 939 1023 l 907 818 l 630 818 m 515 0 l 621 737 l 895 737 l 792 0 l 515 0 "},"4":{"x_min":16,"x_max":868,"ha":913,"o":"m 436 0 l 469 219 l 16 219 l 51 473 l 554 974 l 846 974 l 766 431 l 868 431 l 836 219 l 734 219 l 702 0 l 436 0 m 257 431 l 508 431 l 554 733 l 257 431 "},"Ü":{"x_min":77,"x_max":1103,"ha":1124,"o":"m 169 999 l 486 999 l 396 407 q 393 384 394 395 q 392 360 392 372 q 426 257 392 293 q 524 222 460 222 q 644 260 606 222 q 697 402 681 298 l 788 999 l 1103 999 l 1011 389 q 863 70 978 168 q 526 -28 749 -28 q 191 70 306 -28 q 77 356 77 169 q 79 404 77 378 q 86 466 81 430 l 169 999 m 707 1120 l 733 1311 l 903 1311 l 876 1120 l 707 1120 m 461 1120 l 485 1311 l 657 1311 l 630 1120 l 461 1120 "},"à":{"x_min":-3,"x_max":820,"ha":900,"o":"m 516 329 q 401 299 471 314 q 286 212 286 273 q 306 167 286 184 q 360 151 326 151 q 471 197 430 151 q 516 329 512 244 m 503 0 l 494 69 q 370 0 433 22 q 238 -24 307 -24 q 62 32 128 -24 q -3 181 -3 88 q 79 370 -3 308 q 360 454 161 433 q 401 457 375 455 q 543 525 543 470 q 518 571 543 554 q 450 588 493 588 q 377 569 402 588 q 349 513 353 551 l 74 513 q 189 700 91 638 q 471 762 288 762 q 730 702 641 762 q 820 530 820 643 q 817 482 820 511 q 809 420 814 453 l 767 154 q 762 116 763 130 q 760 92 760 101 q 766 52 760 69 q 785 19 772 34 l 785 0 l 503 0 m 309 1076 l 493 1076 l 605 825 l 509 825 l 309 1076 "},"ó":{"x_min":20,"x_max":856,"ha":913,"o":"m 456 566 q 349 501 387 566 q 312 321 312 437 q 338 213 312 248 q 421 178 365 178 q 525 242 486 178 q 564 415 564 306 q 537 528 564 490 q 456 566 510 566 m 20 331 q 140 647 20 529 q 462 765 260 765 q 750 669 644 765 q 856 409 856 573 q 739 89 856 205 q 416 -26 622 -26 q 126 70 233 -26 q 20 331 20 167 m 359 825 l 515 1076 l 727 1076 l 461 825 l 359 825 "}}}
